<svg viewBox="0 0 52 52" fill="none" xmlns="http://www.w3.org/2000/svg">
<path d="M34.5468 13.8554C32.0292 11.4549 28.692 10.284 25.1791 10.4596C18.9145 10.8694 13.8794 15.846 13.4696 22.1692C13.2354 26.1504 14.8162 29.8975 17.8021 32.4736C19.7342 34.1129 20.788 36.5719 20.788 39.148V42.1925C20.788 42.6023 21.1393 42.9536 21.5491 42.9536H21.7248C21.9004 44.593 22.4859 46.8763 25.9402 46.8763C29.3946 46.8763 29.98 44.593 30.1557 42.9536H30.3313C30.7412 42.9536 31.0924 42.6023 31.0924 42.1925V39.0895C31.0924 36.5719 32.2634 34.1129 34.254 32.2979C36.9472 29.8975 38.4695 26.5017 38.4695 22.9303C38.528 19.5345 37.0643 16.1973 34.5468 13.8554ZM29.6287 39.0895V41.4314H22.4274V39.148C22.4274 38.9138 22.4274 38.7382 22.3688 38.504H29.6287C29.6287 38.7382 29.6287 38.9138 29.6287 39.0895ZM25.9988 45.3541C24.1253 45.3541 23.5398 44.593 23.3641 42.9536H28.6334C28.4578 44.593 27.8723 45.3541 25.9988 45.3541ZM33.2587 31.1855C31.5023 32.7663 30.2728 34.8155 29.8044 36.9818H22.1932C21.7248 34.7569 20.5538 32.7663 18.8559 31.3026C16.2213 29.0193 14.8162 25.7406 15.0503 22.2863C15.4016 16.7828 19.7927 12.3917 25.2962 12.0404C28.3407 11.8647 31.2681 12.9186 33.4929 14.9678C35.7177 17.0755 36.9472 19.8858 36.9472 22.9888C37.0058 26.0919 35.6006 29.1363 33.2587 31.1855Z" fill="currentColor"/>
<path d="M13.4106 32.0029L11.7127 33.3495C11.3614 33.6422 11.3029 34.1106 11.5956 34.4034C11.7713 34.579 11.9469 34.6961 12.1811 34.6961C12.3568 34.6961 12.5324 34.6376 12.6495 34.5205L14.3474 33.1739C14.6987 32.8811 14.7572 32.4127 14.4645 32.12C14.2303 31.8273 13.7619 31.7687 13.4106 32.0029Z" fill="currentColor"/>
<path d="M11.6545 26.2668C11.5374 25.8569 11.1276 25.5642 10.7178 25.6813L8.61003 26.1497C8.2002 26.2668 7.90746 26.6766 8.02455 27.0864C8.0831 27.4377 8.43439 27.6719 8.78568 27.6719C8.84422 27.6719 8.90277 27.6719 8.96132 27.6719L11.069 27.2035C11.5374 27.0864 11.7716 26.6766 11.6545 26.2668Z" fill="currentColor"/>
<path d="M8.61049 19.8256L10.7182 20.294C10.7768 20.294 10.8353 20.294 10.8939 20.294C11.2451 20.294 11.5379 20.0598 11.655 19.7085C11.7721 19.2987 11.4793 18.8888 11.0695 18.7717L8.96178 18.3034C8.55195 18.1863 8.14211 18.479 8.02502 18.8888C7.96647 19.2987 8.20066 19.7085 8.61049 19.8256Z" fill="currentColor"/>
<path d="M13.4106 13.912C13.5277 14.0291 13.7034 14.0877 13.879 14.0877C14.1132 14.0877 14.3474 13.9706 14.4645 13.7949C14.7572 13.4436 14.6987 12.9753 14.3474 12.7411L12.6495 11.3945C12.2982 11.1017 11.8298 11.1603 11.5956 11.5116C11.3029 11.8628 11.3614 12.3312 11.7127 12.624L13.4106 13.912Z" fill="currentColor"/>
<path d="M18.622 9.40478C18.7391 9.69751 19.0318 9.81461 19.3246 9.81461C19.4417 9.81461 19.5588 9.81461 19.6759 9.75606C20.0857 9.58042 20.2028 9.11204 20.0272 8.7022L19.0904 6.71158C18.9147 6.30174 18.4464 6.18465 18.0365 6.36029C17.6267 6.53593 17.5096 7.00432 17.6852 7.41415L18.622 9.40478Z" fill="currentColor"/>
<path d="M25.9992 8.29203C26.409 8.29203 26.7603 7.94074 26.7603 7.53091V5.36464C26.7603 4.9548 26.409 4.60352 25.9992 4.60352C25.5893 4.60352 25.238 4.9548 25.238 5.36464V7.53091C25.238 7.94074 25.5893 8.29203 25.9992 8.29203Z" fill="currentColor"/>
<path d="M32.381 9.75667C32.4981 9.81522 32.6152 9.81522 32.7323 9.81522C33.025 9.81522 33.3178 9.63958 33.4349 9.40538L34.3716 7.41476C34.5473 7.00492 34.3716 6.59509 34.0203 6.3609C33.6105 6.18525 33.2007 6.3609 32.9665 6.71218L32.0297 8.70281C31.8541 9.11264 31.9712 9.58103 32.381 9.75667Z" fill="currentColor"/>
<path d="M38.0595 14.0896C38.2352 14.0896 38.4108 14.031 38.5279 13.9139L40.2258 12.5673C40.5771 12.2746 40.6356 11.8062 40.3429 11.4549C40.0502 11.1036 39.5818 11.0451 39.289 11.3378L37.5912 12.6844C37.2399 12.9772 37.1813 13.4455 37.4741 13.7968C37.6497 14.031 37.8839 14.0896 38.0595 14.0896Z" fill="currentColor"/>
<path d="M40.3426 19.7085C40.4011 20.0598 40.7524 20.294 41.1037 20.294C41.1623 20.294 41.2208 20.294 41.2793 20.294L43.3871 19.8256C43.7969 19.7085 44.0896 19.2987 43.9725 18.8888C43.8555 18.479 43.4456 18.1863 43.0358 18.3034L40.9281 18.7717C40.4597 18.8888 40.2255 19.2987 40.3426 19.7085Z" fill="currentColor"/>
<path d="M43.3878 26.1497L41.2216 25.6813C40.8117 25.5642 40.4019 25.8569 40.2848 26.2668C40.1677 26.6766 40.4605 27.0864 40.8703 27.2035L42.978 27.6719C43.0366 27.6719 43.0951 27.6719 43.1537 27.6719C43.5049 27.6719 43.7977 27.4377 43.9148 27.0864C44.0319 26.6766 43.7977 26.2668 43.3878 26.1497Z" fill="currentColor"/>
<path d="M38.5863 32.0048C38.235 31.7121 37.7666 31.7706 37.5324 32.1219C37.2397 32.4732 37.2982 32.9416 37.6495 33.2343L39.3474 34.5809C39.4645 34.698 39.6401 34.7566 39.8158 34.7566C40.05 34.7566 40.2842 34.6395 40.4012 34.4638C40.694 34.1125 40.6354 33.6442 40.2842 33.3514L38.5863 32.0048Z" fill="currentColor"/>
<path d="M25.9992 15.1416C21.6667 15.1416 18.1538 18.6545 18.1538 22.987C18.1538 27.3195 21.6667 30.8324 25.9992 30.8324C30.3318 30.8324 33.8446 27.3195 33.8446 22.987C33.8446 18.6545 30.3318 15.1416 25.9992 15.1416ZM25.9992 29.2516C22.5449 29.2516 19.7346 26.4413 19.7346 22.987C19.7346 19.5327 22.5449 16.6638 25.9992 16.6638C29.4535 16.6638 32.2638 19.4741 32.2638 22.9285C32.2638 26.3828 29.4535 29.2516 25.9992 29.2516Z" fill="currentColor"/>
<path d="M28.34 20.8211L25.0613 24.0998L23.6562 22.7532C23.3634 22.4605 22.8951 22.4605 22.5438 22.7532C22.251 23.0459 22.251 23.5143 22.5438 23.8656L24.4759 25.7977C24.5929 25.9148 24.8271 26.0319 25.0028 26.0319C25.1784 26.0319 25.4126 25.9733 25.5297 25.7977L29.3939 21.9335C29.6866 21.6408 29.6866 21.1724 29.3939 20.8211C29.1011 20.5284 28.6327 20.5284 28.34 20.8211Z" fill="currentColor"/>
</svg>
