<svg viewBox="0 0 52 52" fill="none" xmlns="http://www.w3.org/2000/svg">
<path d="M26.8429 44H27.1074C28.5883 44.0014 30.0283 43.5167 31.2042 42.6209C32.3802 41.7251 33.2265 40.4683 33.6119 39.0451C33.8057 38.2543 34.097 37.4903 34.4792 36.7706L34.5139 36.7101C35.6706 34.7253 37.3323 33.0789 39.3316 31.9366C41.0721 30.9258 42.5621 29.5385 43.6912 27.8773C44.8204 26.216 45.5599 24.3234 45.855 22.3393C46.1501 20.3552 45.9933 18.3305 45.3961 16.4149C44.799 14.4993 43.7768 12.7418 42.4051 11.2725C41.0335 9.80313 39.3475 8.65952 37.4719 7.92624C35.5963 7.19297 33.579 6.88878 31.5694 7.03618C29.5597 7.18359 27.609 7.77881 25.8617 8.77783C24.1143 9.77684 22.615 11.1541 21.4745 12.8077C21.3206 13.0436 21.2653 13.3301 21.3205 13.606C21.3756 13.882 21.5369 14.1255 21.7699 14.2848C22.0029 14.4441 22.2892 14.5065 22.5677 14.4588C22.8463 14.411 23.0951 14.2568 23.2611 14.0291C24.1971 12.6815 25.4214 11.5568 26.8459 10.7359C28.2704 9.91507 29.8599 9.41835 31.5002 9.28144C34.0474 9.04584 36.5992 9.68184 38.7343 11.0844C40.8694 12.4871 42.4602 14.5724 43.2439 16.9962C44.0277 19.42 43.9576 22.0374 43.0453 24.4163C42.133 26.7951 40.4329 28.7932 38.2258 30.0806C35.9027 31.4202 33.9749 33.3449 32.6363 35.6613L32.6016 35.7218C32.1246 36.5953 31.759 37.5247 31.5132 38.4884C31.2415 39.4856 30.6373 40.3612 29.7996 40.9714C28.962 41.5816 27.9407 41.8901 26.9036 41.8463C25.756 41.7829 24.6722 41.2998 23.8607 40.4896C23.0491 39.6794 22.5668 38.5993 22.5066 37.4568C22.5012 37.3151 22.4678 37.1759 22.4083 37.047C22.3488 36.9182 22.2644 36.8022 22.1599 36.7058C22.0555 36.6095 21.9329 36.5345 21.7993 36.4852C21.6657 36.436 21.5237 36.4134 21.3813 36.4188C21.239 36.4242 21.099 36.4574 20.9696 36.5166C20.8401 36.5758 20.7237 36.6598 20.6268 36.7638C20.53 36.8678 20.4547 36.9898 20.4052 37.1228C20.3557 37.2558 20.333 37.3971 20.3384 37.5388C20.41 39.2318 21.1186 40.8361 22.3236 42.0331C23.5287 43.23 25.1419 43.9322 26.8429 44Z" fill="currentColor" stroke="none" stroke-width="0.5"/>
<path d="M27.858 25.5381L22.8538 28.5594C22.7297 28.6318 22.6213 28.7281 22.5349 28.8426C22.4485 28.9572 22.3859 29.0877 22.3507 29.2266C22.3156 29.3655 22.3085 29.5099 22.33 29.6516C22.3516 29.7932 22.4012 29.9291 22.476 30.0515C22.5509 30.1738 22.6494 30.2801 22.7659 30.3641C22.8825 30.4481 23.0147 30.5082 23.1548 30.5409C23.2949 30.5735 23.4401 30.5781 23.582 30.5543C23.7239 30.5305 23.8597 30.4789 23.9813 30.4023L28.9811 27.3811C29.7917 26.8882 30.4116 26.1375 30.7403 25.2505C31.0691 24.3634 31.0874 23.3919 30.7925 22.4931C30.4975 21.5944 29.9065 20.821 29.115 20.2981C28.3235 19.7753 27.378 19.5336 26.4313 19.6121C26.5069 19.3348 26.607 19.0647 26.7305 18.805C27.2062 17.7971 27.935 16.9283 28.8465 16.2826C29.758 15.6369 30.8215 15.2362 31.9341 15.1191H31.9862C33.2021 15.0086 34.4197 15.3124 35.4395 15.9806C36.4594 16.6488 37.2211 17.6418 37.6 18.7972C37.9788 19.9525 37.9523 21.2016 37.5249 22.3399C37.0974 23.4783 36.2943 24.4385 35.2471 25.0633C31.6306 27.1955 29.2109 29.9578 28.0531 33.2639C28.0004 33.399 27.9756 33.5433 27.9802 33.6882C27.9848 33.8331 28.0186 33.9755 28.0798 34.1071C28.1409 34.2387 28.228 34.3566 28.3359 34.454C28.4439 34.5513 28.5704 34.6259 28.7079 34.6735C28.8455 34.7211 28.9913 34.7406 29.1366 34.7308C29.2819 34.7211 29.4237 34.6823 29.5536 34.6168C29.6835 34.5513 29.7989 34.4604 29.8927 34.3496C29.9866 34.2388 30.057 34.1103 30.0998 33.9717C31.0972 31.1058 33.1353 28.7924 36.3485 26.9063C37.8233 26.0354 38.957 24.6915 39.5636 23.0951C40.1702 21.4986 40.2136 19.7443 39.6868 18.12C39.1599 16.4957 38.0941 15.0979 36.6642 14.1558C35.2342 13.2137 33.5251 12.7833 31.817 12.9351H31.752C30.2615 13.085 28.8354 13.6166 27.6126 14.4781C26.3899 15.3396 25.4122 16.5017 24.7748 17.8512C24.2855 18.8784 24.0534 20.0083 24.0984 21.1443C24.1096 21.3303 24.1688 21.5103 24.2703 21.6669C24.3719 21.8234 24.5122 21.9513 24.6779 22.0381C24.8436 22.1249 25.0289 22.1676 25.2161 22.1623C25.4032 22.1569 25.5858 22.1036 25.7462 22.0075C25.9791 21.8695 26.237 21.7785 26.5053 21.7397C26.7735 21.7009 27.0468 21.7151 27.3095 21.7814C27.5723 21.8478 27.8193 21.965 28.0365 22.1263C28.2538 22.2877 28.437 22.49 28.5756 22.7219C28.7143 22.9537 28.8057 23.2104 28.8447 23.4774C28.8837 23.7444 28.8694 24.0164 28.8028 24.2779C28.7362 24.5394 28.6184 24.7853 28.4563 25.0015C28.2942 25.2178 28.0909 25.4001 27.858 25.5381Z" fill="currentColor" stroke="none" stroke-width="0.5"/>
<path d="M6.34539 29.1905C6.55541 29.3854 6.83453 29.4894 7.12151 29.4797C7.40849 29.47 7.67988 29.3473 7.87612 29.1387C8.79178 28.1607 9.30093 26.8737 9.30093 25.5369C9.30093 24.2001 8.79178 22.9131 7.87612 21.9351C7.67945 21.7262 7.40747 21.6036 7.12 21.5943C6.83252 21.585 6.55311 21.6898 6.34322 21.8855C6.13333 22.0812 6.01017 22.352 6.00081 22.6381C5.99146 22.9242 6.09669 23.2023 6.29335 23.4112C6.83316 23.9887 7.13324 24.7482 7.13324 25.5369C7.13324 26.3256 6.83316 27.0851 6.29335 27.6626C6.19573 27.7662 6.11963 27.8879 6.06939 28.0209C6.01916 28.1538 5.99579 28.2953 6.00062 28.4373C6.00546 28.5792 6.0384 28.7188 6.09756 28.8481C6.15673 28.9773 6.24095 29.0937 6.34539 29.1905Z" fill="currentColor" stroke="none" stroke-width="0.5"/>
<path d="M11.2324 32.276C11.4624 32.4477 11.7515 32.5214 12.0361 32.4809C12.3207 32.4405 12.5776 32.2891 12.7501 32.0602C14.1624 30.1757 14.9253 27.8875 14.9253 25.5364C14.9253 23.1854 14.1624 20.8972 12.7501 19.0127C12.5776 18.7837 12.3207 18.6324 12.0361 18.5919C11.7515 18.5514 11.4624 18.6252 11.2324 18.7969C11.0023 18.9686 10.8503 19.2242 10.8096 19.5075C10.769 19.7908 10.843 20.0786 11.0155 20.3075C12.1473 21.8172 12.7588 23.6506 12.7588 25.5343C12.7588 27.418 12.1473 29.2513 11.0155 30.761C10.9294 30.8745 10.8667 31.0038 10.831 31.1415C10.7953 31.2792 10.7873 31.4226 10.8075 31.5634C10.8276 31.7042 10.8755 31.8396 10.9484 31.9619C11.0214 32.0842 11.1178 32.1909 11.2324 32.276Z" fill="currentColor" stroke="none" stroke-width="0.5"/>
<path d="M16.0025 35.2891C16.1189 35.3712 16.2504 35.4297 16.3895 35.4611C16.5287 35.4925 16.6726 35.4963 16.8132 35.4723C16.9538 35.4482 17.0883 35.3968 17.2088 35.3209C17.3294 35.245 17.4338 35.1462 17.5159 35.0301C19.4854 32.2518 20.5427 28.935 20.5427 25.5347C20.5427 22.1345 19.4854 18.8176 17.5159 16.0394C17.3488 15.8083 17.0966 15.6524 16.8145 15.6055C16.5323 15.5587 16.243 15.6248 16.0095 15.7893C15.7761 15.9539 15.6175 16.2037 15.5683 16.4841C15.519 16.7646 15.5832 17.0531 15.7467 17.2867C17.4563 19.6996 18.3741 22.58 18.3741 25.5326C18.3741 28.4852 17.4563 31.3655 15.7467 33.7784C15.6633 33.8942 15.6037 34.0252 15.5714 34.1639C15.5391 34.3026 15.5348 34.4464 15.5585 34.5868C15.5823 34.7272 15.6338 34.8616 15.71 34.9821C15.7862 35.1026 15.8856 35.207 16.0025 35.2891Z" fill="currentColor" stroke="none" stroke-width="0.5"/>
</svg>
