<svg viewBox="0 0 52 52" fill="none" xmlns="http://www.w3.org/2000/svg">
<path d="M26.0001 29.796C25.9227 29.7962 25.8456 29.7854 25.7713 29.7638C23.7433 29.2219 22.0185 28.3977 20.6462 27.3141C19.5546 26.4644 18.6548 25.3937 18.0056 24.1722C16.9719 22.2066 16.9739 20.4984 16.9786 20.2795V10.6241C16.9783 10.4108 17.06 10.2054 17.2069 10.0506C17.3537 9.89574 17.5544 9.80322 17.7675 9.79215C22.2675 9.55815 25.1858 6.75795 25.3933 6.55359L25.4193 6.52707C25.5773 6.37314 25.7899 6.28826 26.0105 6.29108C26.2311 6.29391 26.4415 6.38422 26.5955 6.54215C26.6251 6.57231 29.5855 9.55035 34.2327 9.79215C34.4458 9.80322 34.6465 9.89574 34.7934 10.0506C34.9402 10.2054 35.0219 10.4108 35.0216 10.6241V20.2795C35.0263 20.4984 35.0283 22.2066 33.9946 24.1722C33.346 25.3935 32.4469 26.4642 31.3561 27.3141C29.9849 28.3967 28.2626 29.2204 26.2372 29.7622C26.1602 29.7848 26.0804 29.7962 26.0001 29.796ZM18.6426 11.388V20.2904C18.6426 20.3008 18.6426 20.3117 18.6426 20.3221C18.6426 20.3325 18.6119 21.7943 19.5193 23.4733C20.7081 25.674 22.8879 27.2303 26.0006 28.1013C29.1133 27.2303 31.2932 25.674 32.4819 23.4733C33.3893 21.7943 33.3586 20.3331 33.3581 20.3185V11.3901C29.7067 10.9824 27.1103 9.16659 26.0001 8.24203C24.8899 9.16659 22.2935 10.9824 18.6426 11.3901V11.388Z" fill="currentColor" stroke="currentColor" stroke-width="0.3"/>
<path d="M26 24.0757C24.807 24.0757 23.6408 23.7219 22.6488 23.0591C21.6569 22.3963 20.8837 21.4543 20.4272 20.3521C19.9706 19.2499 19.8512 18.037 20.0839 16.8669C20.3167 15.6968 20.8912 14.622 21.7348 13.7785C22.5783 12.9349 23.6531 12.3604 24.8232 12.1276C25.9933 11.8949 27.2062 12.0143 28.3084 12.4709C29.4106 12.9274 30.3526 13.7006 31.0154 14.6925C31.6783 15.6845 32.032 16.8507 32.032 18.0437C32.0302 19.643 31.3941 21.1762 30.2633 22.307C29.1325 23.4378 27.5993 24.0739 26 24.0757ZM26 13.6757C25.1361 13.6757 24.2916 13.9319 23.5733 14.4119C22.855 14.8918 22.2951 15.574 21.9645 16.3722C21.6339 17.1703 21.5474 18.0486 21.716 18.8959C21.8845 19.7432 22.3005 20.5215 22.9114 21.1324C23.5223 21.7432 24.3006 22.1593 25.1479 22.3278C25.9952 22.4963 26.8734 22.4098 27.6716 22.0792C28.4697 21.7486 29.1519 21.1888 29.6319 20.4705C30.1118 19.7521 30.368 18.9076 30.368 18.0437C30.3668 16.8856 29.9062 15.7753 29.0873 14.9564C28.2684 14.1376 27.1581 13.677 26 13.6757Z" fill="currentColor" stroke="currentColor" stroke-width="0.3"/>
<path d="M25.22 20.4359C25.1107 20.4361 25.0025 20.4146 24.9015 20.3728C24.8006 20.3309 24.7089 20.2695 24.6318 20.1921L23.0718 18.6321C22.9224 18.4748 22.8403 18.2653 22.8431 18.0483C22.8459 17.8314 22.9333 17.6241 23.0867 17.4707C23.2401 17.3173 23.4474 17.2298 23.6644 17.2271C23.8813 17.2243 24.0908 17.3064 24.2481 17.4558L25.22 18.4272L27.7518 15.8958C27.9091 15.7464 28.1186 15.6643 28.3355 15.6671C28.5525 15.6698 28.7598 15.7573 28.9132 15.9107C29.0666 16.0641 29.154 16.2714 29.1568 16.4883C29.1596 16.7053 29.0775 16.9148 28.9281 17.0721L25.8081 20.1921C25.731 20.2695 25.6393 20.3309 25.5384 20.3728C25.4375 20.4146 25.3292 20.4361 25.22 20.4359Z" fill="currentColor" stroke="currentColor" stroke-width="0.3"/>
<path d="M39.1154 40.269H31.0237C30.803 40.269 30.5914 40.1813 30.4353 40.0253C30.2793 39.8693 30.1917 39.6576 30.1917 39.437V34.3758C30.1905 33.1891 30.4833 32.0205 31.0439 30.9745C31.6088 29.9226 32.4392 29.037 33.4526 28.4057C33.6127 28.3064 33.7776 28.2133 33.9419 28.1296L34.0501 28.075C34.4021 27.8961 34.7349 27.7271 35.0568 27.5399L37.8289 25.9326L37.8471 25.9222C37.8669 25.9118 37.9402 25.8728 38.0551 25.8255C38.4493 25.6583 38.8767 25.5841 39.3042 25.6085C39.7317 25.6329 40.1478 25.7554 40.5204 25.9664L42.0159 20.7217C42.2156 20.0179 42.6152 19.3873 43.1662 18.9062C43.7173 18.4251 44.3961 18.1143 45.1203 18.0114C45.1963 18.001 45.2451 17.9963 45.2581 17.9953C45.2815 17.9953 45.3055 17.9922 45.3294 17.9922C45.8603 17.9922 46.3585 18.2589 46.8093 18.7857C47.5654 19.6697 47.8212 20.8849 47.4941 22.0419L44.7251 31.8242C44.4332 32.8524 43.8818 33.7884 43.1241 34.5422L40.4388 37.2114C40.2828 37.3655 40.159 37.549 40.0746 37.7514C39.9902 37.9538 39.947 38.171 39.9474 38.3902V39.437C39.9474 39.6576 39.8597 39.8693 39.7037 40.0253C39.5477 40.1813 39.336 40.269 39.1154 40.269ZM31.8557 38.605H38.2834V38.3902C38.2823 37.9515 38.3686 37.517 38.5373 37.1121C38.7059 36.7071 38.9535 36.3398 39.2657 36.0315L41.9509 33.3618C42.506 32.8098 42.91 32.1243 43.1241 31.3713L45.8925 21.588C46.0678 20.9692 45.9378 20.3259 45.5452 19.8678C45.4827 19.7874 45.4069 19.7183 45.3211 19.6635C44.9219 19.7263 44.5491 19.9024 44.2469 20.1706C43.9446 20.4389 43.7257 20.7883 43.616 21.1772L41.8173 27.4884C41.9051 27.7288 41.9598 27.98 41.9801 28.2351C42.0742 29.4176 41.6161 30.3297 40.6941 30.8024L40.5246 30.8882C40.3556 30.9735 40.1954 31.0541 40.0483 31.1409L36.9361 32.9718C36.8418 33.0293 36.7371 33.0674 36.628 33.084C36.5189 33.1005 36.4075 33.0952 36.3005 33.0684C36.1935 33.0415 36.0928 32.9936 36.0045 32.9275C35.9161 32.8614 35.8418 32.7783 35.7858 32.6832C35.7299 32.588 35.6934 32.4827 35.6786 32.3734C35.6637 32.264 35.6708 32.1528 35.6993 32.0462C35.7279 31.9396 35.7774 31.8397 35.8449 31.7524C35.9124 31.6651 35.9966 31.5921 36.0926 31.5377L39.2043 29.7067C39.3983 29.5923 39.5901 29.4956 39.7763 29.4025L39.9359 29.3214C40.0685 29.2533 40.38 29.0942 40.3223 28.3672C40.3107 28.223 40.273 28.082 40.211 27.9512C40.2006 27.932 40.1907 27.9127 40.1814 27.893C40.0802 27.7082 39.9318 27.5535 39.7513 27.4447C39.5952 27.3477 39.4181 27.2896 39.2349 27.2752C39.0517 27.2608 38.8677 27.2906 38.6983 27.3621C38.6739 27.3719 38.6567 27.3803 38.6463 27.3844L35.8903 28.9813C35.5263 29.1893 35.1592 29.3786 34.8025 29.5601L34.6954 29.6121C34.5721 29.675 34.4489 29.7447 34.3283 29.8201C32.801 30.767 31.8525 32.5127 31.8525 34.3763L31.8557 38.605Z" fill="currentColor" stroke="currentColor" stroke-width="0.3"/>
<path d="M41.066 45.6562H29.0727C28.8521 45.6562 28.6404 45.5685 28.4844 45.4125C28.3284 45.2564 28.2407 45.0448 28.2407 44.8242V39.4375C28.2407 39.2168 28.3284 39.0052 28.4844 38.8492C28.6404 38.6931 28.8521 38.6055 29.0727 38.6055H41.066C41.2867 38.6055 41.4983 38.6931 41.6543 38.8492C41.8103 39.0052 41.898 39.2168 41.898 39.4375V44.8242C41.898 45.0448 41.8103 45.2564 41.6543 45.4125C41.4983 45.5685 41.2867 45.6562 41.066 45.6562ZM29.9047 43.9922H40.234V40.2695H29.9047V43.9922Z" fill="currentColor" stroke="currentColor" stroke-width="0.3"/>
<path d="M20.9762 40.2695H12.8845C12.6638 40.2695 12.4522 40.1818 12.2962 40.0258C12.1401 39.8698 12.0525 39.6582 12.0525 39.4375V38.3907C12.0529 38.1715 12.0096 37.9543 11.9253 37.7519C11.8409 37.5495 11.7171 37.366 11.5611 37.2119L8.87579 34.5427C8.118 33.7889 7.56667 32.853 7.27471 31.8247L4.50623 22.0419C4.17915 20.8849 4.43499 19.6676 5.19107 18.7857C5.64191 18.2589 6.14007 17.9922 6.67099 17.9922C6.69491 17.9922 6.71883 17.9922 6.74223 17.9953C6.75523 17.9953 6.80411 18.001 6.88003 18.0114C7.60423 18.1144 8.28298 18.4254 8.83393 18.9065C9.38489 19.3877 9.78437 20.0184 9.98391 20.7222L11.4784 25.9674C11.851 25.7564 12.2671 25.634 12.6946 25.6095C13.1221 25.5851 13.5495 25.6593 13.9437 25.8265C14.0571 25.8738 14.1304 25.9128 14.1517 25.9232L14.1699 25.9336L16.942 27.5409C17.2639 27.7281 17.5967 27.8971 17.9487 28.076L18.0564 28.1306C18.2212 28.2143 18.3861 28.3074 18.5462 28.4067C19.5599 29.0378 20.3907 29.9232 20.9559 30.975C21.5172 32.0208 21.8108 33.1894 21.8103 34.3763V39.4375C21.8103 39.5469 21.7887 39.6553 21.7467 39.7564C21.7048 39.8575 21.6433 39.9493 21.5658 40.0266C21.4884 40.1038 21.3964 40.1651 21.2952 40.2068C21.194 40.2485 21.0856 40.2698 20.9762 40.2695ZM13.7165 38.6055H20.1442V34.3763C20.1442 32.5127 19.1957 30.767 17.6685 29.8201C17.5478 29.7457 17.4246 29.6761 17.3013 29.6121L17.1942 29.5601C16.8375 29.3786 16.4662 29.1914 16.1064 28.9813L13.353 27.3834C13.3436 27.3792 13.3265 27.3709 13.301 27.361C13.1316 27.2897 12.9476 27.26 12.7644 27.2744C12.5812 27.2887 12.4041 27.3468 12.248 27.4437C12.0675 27.5525 11.9192 27.7071 11.8179 27.8919C11.8086 27.9117 11.7987 27.9309 11.7883 27.9502C11.7263 28.081 11.6886 28.2219 11.677 28.3662C11.6193 29.0942 11.9308 29.2502 12.0634 29.3204L12.223 29.4015C12.4087 29.4946 12.6005 29.5913 12.795 29.7057L15.9072 31.5382C16.0032 31.5926 16.0874 31.6656 16.155 31.7529C16.2225 31.8402 16.272 31.9401 16.3005 32.0467C16.3291 32.1533 16.3361 32.2645 16.3213 32.3739C16.3064 32.4833 16.2699 32.5886 16.214 32.6837C16.1581 32.7788 16.0837 32.8619 15.9954 32.928C15.907 32.9941 15.8064 33.042 15.6993 33.0689C15.5923 33.0958 15.481 33.1011 15.3719 33.0845C15.2627 33.0679 15.158 33.0298 15.0638 32.9723L11.9516 31.1414C11.8044 31.0546 11.6443 30.974 11.4753 30.8887L11.3057 30.8029C10.3822 30.3302 9.92567 29.4181 10.0198 28.2357C10.04 27.9805 10.0948 27.7293 10.1825 27.4889L8.38387 21.1777C8.27414 20.7888 8.05519 20.4395 7.75298 20.1712C7.45078 19.9029 7.07798 19.7269 6.67879 19.664C6.59294 19.7188 6.51713 19.7879 6.45467 19.8683C6.06207 20.3265 5.93467 20.9697 6.10731 21.5885L8.87579 31.3718C9.08984 32.1249 9.49379 32.8103 10.0489 33.3623L12.7342 36.032C13.0463 36.3403 13.2939 36.7076 13.4626 37.1126C13.6312 37.5176 13.7175 37.9521 13.7165 38.3907V38.6055Z" fill="currentColor" stroke="currentColor" stroke-width="0.3"/>
<path d="M22.9273 45.6562H10.9341C10.7134 45.6562 10.5018 45.5685 10.3457 45.4125C10.1897 45.2564 10.1021 45.0448 10.1021 44.8242V39.4375C10.1021 39.2168 10.1897 39.0052 10.3457 38.8492C10.5018 38.6931 10.7134 38.6055 10.9341 38.6055H22.9273C23.148 38.6055 23.3596 38.6931 23.5156 38.8492C23.6717 39.0052 23.7593 39.2168 23.7593 39.4375V44.8242C23.7593 45.0448 23.6717 45.2564 23.5156 45.4125C23.3596 45.5685 23.148 45.6562 22.9273 45.6562ZM11.7661 43.9922H22.0953V40.2695H11.7661V43.9922Z" fill="currentColor" stroke="currentColor" stroke-width="0.3"/>
</svg>
