<svg viewBox="0 0 52 52" fill="none" xmlns="http://www.w3.org/2000/svg">
<path d="M41.8516 14.5501C41.8289 14.5398 41.8054 14.5303 41.7827 14.52C43.0732 13.5412 43.89 12.0138 43.89 10.3508C43.8893 7.4355 41.4579 5.06348 38.4685 5.06348C35.4791 5.06348 33.0469 7.4355 33.0469 10.3516C33.0469 12.0146 33.8637 13.5419 35.1542 14.5208C35.133 14.5296 35.1117 14.5384 35.0919 14.5479C33.7567 15.1308 32.1502 16.6603 31.0305 18.03C30.6199 17.7463 30.2306 17.5182 29.8691 17.3569C29.784 17.3195 29.6953 17.2843 29.6044 17.2521C31.164 16.1485 32.1612 14.3551 32.1612 12.3944C32.1612 9.08308 29.3976 6.3899 26.0005 6.3899C22.6034 6.3899 19.8399 9.08308 19.8399 12.3944C19.8399 14.3551 20.8363 16.1485 22.3967 17.2521C22.3043 17.2851 22.2133 17.321 22.1268 17.3591C21.769 17.519 21.3797 17.747 20.9698 18.0308C19.8501 16.6611 18.2443 15.1323 16.9142 14.5516C16.8915 14.5413 16.8688 14.5318 16.8453 14.5215C18.1358 13.5434 18.9526 12.0153 18.9526 10.3523C18.9541 7.4355 16.522 5.06348 13.5326 5.06348C10.5432 5.06348 8.11174 7.4355 8.11174 10.3516C8.11174 12.0146 8.92856 13.5419 10.2191 14.5208C10.1978 14.5296 10.1765 14.5384 10.156 14.5479C8.07141 15.4593 4.92876 18.9334 4.25491 21.0752C3.73578 22.7645 4.17426 27.491 4.22265 27.9544C4.22265 30.0661 5.88563 31.8046 8.00175 31.996L8.24519 36.6931C8.24519 38.2872 9.51735 39.5843 11.0813 39.5843H13.5208C13.5252 39.5843 13.5289 39.5865 13.5333 39.5865C13.5377 39.5865 13.5414 39.5843 13.5458 39.5843H15.986C17.3945 39.5843 18.5574 38.5291 18.7759 37.1785C19.078 37.2606 19.3882 37.309 19.7035 37.331L19.9909 42.8948C19.9909 44.6751 21.4127 46.124 23.16 46.124H28.8447C30.592 46.124 32.0138 44.6751 32.0123 42.9322L32.3012 37.3303C32.6165 37.3083 32.9274 37.2599 33.2302 37.177C33.4583 38.5401 34.6175 39.5835 36.0187 39.5835H38.4582C38.4626 39.5835 38.4663 39.5857 38.4707 39.5857C38.4751 39.5857 38.4787 39.5835 38.4831 39.5835H40.9226C42.4866 39.5835 43.7588 38.2864 43.758 36.7298L44.0029 31.9945C46.1191 31.8032 47.7813 30.0683 47.7784 28.0233C47.8304 27.4895 48.2682 22.7623 47.7483 21.0686C47.0737 18.9341 43.9311 15.4593 41.8516 14.5501ZM15.9845 38.1178H14.2651V30.8543C14.2651 30.4496 13.9366 30.1211 13.5318 30.1211C13.1271 30.1211 12.7986 30.4496 12.7986 30.8543V38.1178H11.0799C10.3246 38.1178 9.71019 37.4784 9.70873 36.655L9.00335 23.0072C8.98282 22.6025 8.62574 22.2843 8.23346 22.3129C7.82944 22.3334 7.51782 22.6788 7.53908 23.0828L7.9233 30.5031C6.65553 30.289 5.68766 29.2244 5.68399 27.8833C5.55128 26.515 5.28804 22.7015 5.65393 21.5107C6.19799 19.7817 9.05101 16.631 10.7477 15.889C11.1356 15.7159 11.7904 15.5847 12.5925 15.5216C12.9562 15.4923 13.2429 15.2012 13.2664 14.8375C13.2899 14.4738 13.042 14.1483 12.6857 14.0735C10.8848 13.6944 9.57748 12.1289 9.57748 10.3516C9.57821 8.24426 11.3519 6.52995 13.5326 6.52995C15.7132 6.52995 17.4876 8.24426 17.4876 10.3516C17.4876 12.1289 16.1803 13.6937 14.3794 14.0735C14.0231 14.149 13.7753 14.4746 13.7987 14.8375C13.8222 15.2012 14.1089 15.493 14.4726 15.5216C15.2747 15.5847 15.9295 15.7152 16.3233 15.8912C17.2787 16.3084 18.6791 17.5402 19.8157 18.9319C17.9767 20.5289 15.9456 23.005 15.3766 24.844C14.7769 26.7753 15.2872 32.2277 15.3437 32.7718C15.3437 34.2764 16.1099 35.6717 17.3623 36.5237L17.3549 36.6916C17.3542 37.4784 16.7405 38.1178 15.9845 38.1178ZM32.1304 26.3567C31.7308 26.3317 31.381 26.6463 31.3605 27.051L30.5451 42.8956C30.5451 43.8678 29.7811 44.6583 28.8425 44.6583H26.7337V34.7024C26.7337 34.2976 26.4053 33.9691 26.0005 33.9691C25.5958 33.9691 25.2673 34.2976 25.2673 34.7024V44.6583H23.1585C22.2199 44.6583 21.4559 43.8678 21.4552 42.8582L20.6406 27.051C20.6193 26.6463 20.2563 26.331 19.8707 26.3567C19.4659 26.3772 19.155 26.7226 19.1763 27.1266L19.6265 35.8616C19.2159 35.8118 18.8258 35.6871 18.4628 35.4891C17.4429 34.9355 16.8101 33.8951 16.8065 32.7014C16.651 31.111 16.3431 26.6771 16.7771 25.2788C17.2471 23.7581 19.3112 21.1661 21.2836 19.6175C21.8159 19.1988 22.3145 18.8806 22.7207 18.6995C23.1878 18.4949 23.9826 18.3365 24.9014 18.2654C25.2658 18.2368 25.5532 17.9457 25.5767 17.5813C25.6002 17.2169 25.3523 16.8913 24.9952 16.8165C22.8579 16.37 21.3071 14.5098 21.3071 12.3944C21.3071 9.89184 23.4129 7.85637 26.0012 7.85637C28.5896 7.85637 30.6954 9.89184 30.6954 12.3944C30.6954 14.5098 29.1439 16.37 27.0072 16.8165C26.6502 16.8913 26.4023 17.2176 26.4258 17.5813C26.4493 17.9457 26.7367 18.2368 27.1011 18.2654C28.0198 18.3365 28.8147 18.4949 29.2773 18.6973C29.6887 18.8806 30.1866 19.1995 30.7196 19.6182C32.692 21.1661 34.7554 23.7581 35.2261 25.2803C35.6602 26.6771 35.3522 31.111 35.1931 32.7725C35.1931 33.8943 34.5596 34.9355 33.5389 35.4891C33.176 35.6871 32.7866 35.811 32.3767 35.8609L32.8269 27.1266C32.846 26.7226 32.5351 26.3772 32.1304 26.3567ZM46.3134 27.9544C46.3134 29.2317 45.3455 30.2905 44.0785 30.5039L44.4627 23.0835C44.4839 22.6788 44.1723 22.3341 43.7683 22.3136C43.3614 22.285 43.0189 22.6032 42.9984 23.008L42.2908 36.6938C42.2908 37.4799 41.6764 38.1185 40.9211 38.1185H39.2024V30.8551C39.2024 30.4503 38.8739 30.1218 38.4692 30.1218C38.0645 30.1218 37.736 30.4503 37.736 30.8551V38.1185H36.0165C35.2613 38.1185 34.6468 37.4791 34.6461 36.6616L34.6402 36.5245C35.8926 35.6724 36.6581 34.2837 36.6552 32.8443C36.7153 32.2292 37.2256 26.7768 36.6258 24.8462C36.0569 23.0065 34.0251 20.5296 32.1868 18.9334C33.3226 17.541 34.7238 16.3091 35.6851 15.8897C36.073 15.7159 36.7278 15.5854 37.5299 15.5224C37.8936 15.493 38.1803 15.2019 38.2038 14.8383C38.2272 14.4746 37.9794 14.149 37.623 14.0742C35.8215 13.6944 34.5149 12.1297 34.5149 10.3523C34.5134 8.24426 36.2878 6.52995 38.4685 6.52995C40.6491 6.52995 42.4235 8.24426 42.4235 10.3516C42.4235 12.1289 41.1162 13.6944 39.3154 14.0735C38.959 14.149 38.7112 14.4746 38.7346 14.8375C38.7581 15.2012 39.0448 15.493 39.4085 15.5216C40.2106 15.5847 40.8654 15.7159 41.2592 15.8912C42.95 16.6303 45.803 19.781 46.3456 21.5056C46.713 22.7008 46.449 26.5143 46.3134 27.9544Z" fill="currentColor"/>
</svg>
