<svg width="52" height="52" viewBox="0 0 52 52" fill="none" xmlns="http://www.w3.org/2000/svg">
<path d="M38.4673 2.89062H13.5327C12.0894 2.89244 10.7058 3.46652 9.68532 4.48694C8.66481 5.50737 8.09069 6.89084 8.08887 8.33394V43.6695C8.09069 45.1126 8.66481 46.4961 9.68532 47.5165C10.7058 48.537 12.0894 49.111 13.5327 49.1128H38.4673C39.9105 49.111 41.2941 48.537 42.3146 47.5165C43.3352 46.4961 43.9093 45.1126 43.9111 43.6695V8.33447C43.9094 6.89128 43.3354 5.50767 42.3148 4.48713C41.2943 3.46659 39.9106 2.89244 38.4673 2.89062ZM42.6014 43.6695C42.6002 44.7655 42.1642 45.8162 41.3892 46.5911C40.6141 47.3661 39.5634 47.802 38.4673 47.8033H13.5327C12.4366 47.802 11.3858 47.3661 10.6108 46.5911C9.83577 45.8162 9.39981 44.7655 9.39855 43.6695V8.33447C9.39981 7.23852 9.83577 6.18781 10.6108 5.41286C11.3858 4.6379 12.4366 4.20198 13.5327 4.20072H38.4673C39.5634 4.20198 40.6141 4.6379 41.3892 5.41286C42.1642 6.18781 42.6002 7.23852 42.6014 8.33447V43.6695ZM38.8389 6.35849H13.1611C12.6809 6.35891 12.2206 6.54979 11.881 6.88923C11.5414 7.22867 11.3504 7.68895 11.3499 8.16906V17.911C11.3503 18.3912 11.5412 18.8516 11.8808 19.1912C12.2204 19.5307 12.6809 19.7217 13.1611 19.7221H38.8389C39.3191 19.7217 39.7796 19.5307 40.1191 19.1912C40.4587 18.8516 40.6497 18.3912 40.6501 17.911V8.16906C40.6495 7.68895 40.4585 7.22867 40.119 6.88923C39.7794 6.54979 39.319 6.35891 38.8389 6.35849ZM39.3399 17.911C39.3398 18.0438 39.2869 18.1712 39.193 18.2651C39.0991 18.359 38.9717 18.4119 38.8389 18.412H13.1611C13.0283 18.4119 12.9009 18.359 12.807 18.2651C12.713 18.1712 12.6602 18.0438 12.6601 17.911V8.16906C12.6602 8.03623 12.713 7.90888 12.807 7.81495C12.9009 7.72103 13.0283 7.6682 13.1611 7.66806H38.8389C38.9717 7.6682 39.0991 7.72103 39.193 7.81495C39.2869 7.90888 39.3398 8.03623 39.3399 8.16906V17.911ZM17.7022 21.5903H12.872C12.5342 21.5907 12.2103 21.7251 11.9714 21.9639C11.7325 22.2028 11.5982 22.5266 11.5977 22.8644V27.4469C11.5982 27.7847 11.7325 28.1085 11.9714 28.3474C12.2103 28.5862 12.5342 28.7206 12.872 28.721H17.7022C18.04 28.7206 18.3639 28.5862 18.6028 28.3474C18.8416 28.1085 18.976 27.7847 18.9764 27.4469V22.8644C18.976 22.5266 18.8416 22.2028 18.6028 21.9639C18.3639 21.7251 18.04 21.5907 17.7022 21.5903ZM17.6662 27.4109H12.9095V22.9004H17.6662V27.4109ZM23.5857 28.721H28.4164C28.7542 28.7206 29.078 28.5862 29.3168 28.3473C29.5556 28.1084 29.6898 27.7846 29.6901 27.4469V22.8644C29.6898 22.5267 29.5556 22.2028 29.3168 21.964C29.078 21.7251 28.7542 21.5907 28.4164 21.5903H23.5846C23.2469 21.5907 22.923 21.7251 22.6842 21.964C22.4454 22.2028 22.3112 22.5267 22.3109 22.8644V27.4469C22.3112 27.7846 22.4454 28.1084 22.6842 28.3473C22.923 28.5862 23.2469 28.7206 23.5846 28.721H23.5857ZM23.6216 22.9004H28.3783V27.4109H23.6216V22.9004ZM39.129 21.5903H34.2978C33.96 21.5907 33.6361 21.7251 33.3972 21.9639C33.1583 22.2028 33.0239 22.5266 33.0235 22.8644V27.4469C33.0239 27.7847 33.1583 28.1085 33.3972 28.3474C33.6361 28.5862 33.96 28.7206 34.2978 28.721H39.128C39.4658 28.7206 39.7897 28.5862 40.0285 28.3474C40.2674 28.1085 40.4018 27.7847 40.4022 27.4469V22.8644C40.4018 22.5266 40.2674 22.2028 40.0285 21.9639C39.7897 21.7251 39.4658 21.5907 39.128 21.5903H39.129ZM39.0936 27.4109H34.3369V22.9004H39.0936V27.4109ZM17.7022 30.2388H12.872C12.5342 30.2391 12.2103 30.3733 11.9715 30.6121C11.7326 30.8509 11.5982 31.1747 11.5977 31.5124V36.0959C11.5982 36.4337 11.7325 36.7576 11.9714 36.9964C12.2103 37.2353 12.5342 37.3697 12.872 37.3701H17.7022C18.04 37.3697 18.3639 37.2353 18.6028 36.9964C18.8416 36.7576 18.976 36.4337 18.9764 36.0959V31.5124C18.976 31.1747 18.8416 30.8509 18.6027 30.6121C18.3638 30.3733 18.0399 30.2391 17.7022 30.2388ZM17.6662 36.0589H12.9095V31.551H17.6662V36.0589ZM22.3109 36.0949C22.3112 36.4326 22.4454 36.7565 22.6842 36.9953C22.923 37.2342 23.2469 37.3686 23.5846 37.369H28.4153C28.7529 37.3686 29.0766 37.2344 29.3154 36.9957C29.5541 36.7571 29.6885 36.4335 29.6891 36.0959V31.5124C29.6887 31.1748 29.5543 30.8511 29.3155 30.6123C29.0768 30.3735 28.753 30.2392 28.4153 30.2388H23.5846C23.2469 30.2392 22.9232 30.3735 22.6844 30.6123C22.4456 30.8511 22.3113 31.1748 22.3109 31.5124V36.0949ZM23.6216 31.551H28.3783V36.0589H23.6216V31.551ZM39.129 30.2414H34.2978C33.96 30.2417 33.6361 30.376 33.3972 30.6148C33.1583 30.8535 33.0239 31.1773 33.0235 31.5151V36.0959C33.0242 36.4335 33.1587 36.7571 33.3976 36.9957C33.6364 37.2344 33.9601 37.3686 34.2978 37.369H39.128C39.4656 37.3686 39.7893 37.2344 40.0282 36.9957C40.267 36.7571 40.4015 36.4335 40.4022 36.0959V31.5124C40.4018 31.1747 40.2674 30.8509 40.0285 30.6121C39.7896 30.3733 39.4657 30.2391 39.128 30.2388L39.129 30.2414ZM39.0926 36.0589H34.3358V31.551H39.0926V36.0589ZM17.7022 38.8868H12.872C12.5341 38.8871 12.2102 39.0214 11.9713 39.2603C11.7324 39.4992 11.598 39.8231 11.5977 40.161V44.7429C11.5982 45.0807 11.7325 45.4045 11.9714 45.6434C12.2103 45.8822 12.5342 46.0166 12.872 46.017H17.7022C18.04 46.0166 18.3639 45.8822 18.6028 45.6434C18.8416 45.4045 18.976 45.0807 18.9764 44.7429V40.161C18.976 39.8232 18.8416 39.4993 18.6028 39.2605C18.3639 39.0216 18.04 38.8872 17.7022 38.8868ZM17.6662 44.7069H12.9095V40.1964H17.6662V44.7069ZM38.777 38.8868H23.9356C23.5048 38.8872 23.0918 39.0585 22.7872 39.3631C22.4826 39.6677 22.3113 40.0806 22.3109 40.5113V44.393C22.3113 44.8238 22.4826 45.2368 22.7872 45.5415C23.0918 45.8461 23.5048 46.0175 23.9356 46.0181H38.777C39.2079 46.0177 39.6211 45.8463 39.9258 45.5416C40.2304 45.237 40.4018 44.8239 40.4022 44.393V40.5113C40.4017 40.0806 40.2302 39.6676 39.9256 39.3631C39.6209 39.0585 39.2078 38.8872 38.777 38.8868ZM39.0941 44.392C39.0941 44.476 39.0607 44.5567 39.0013 44.6162C38.9418 44.6756 38.8611 44.709 38.777 44.709H23.9356C23.8515 44.709 23.7708 44.6756 23.7113 44.6162C23.6519 44.5567 23.6185 44.476 23.6185 44.392V40.5113C23.6185 40.4272 23.6519 40.3466 23.7113 40.2871C23.7708 40.2277 23.8515 40.1943 23.9356 40.1943H38.777C38.8611 40.1943 38.9418 40.2277 39.0013 40.2871C39.0607 40.3466 39.0941 40.4272 39.0941 40.5113V44.392ZM26.4656 10.2122L23.0498 16.1279C22.9629 16.2784 22.8199 16.3882 22.6521 16.4332C22.4843 16.4782 22.3055 16.4547 22.155 16.3679C22.0045 16.281 21.8947 16.138 21.8497 15.9702C21.8047 15.8024 21.8282 15.6236 21.915 15.4731L25.3309 9.55737C25.3739 9.48287 25.4311 9.41756 25.4994 9.36518C25.5676 9.31281 25.6455 9.27438 25.7286 9.2521C25.8117 9.22982 25.8983 9.22412 25.9836 9.23534C26.0689 9.24655 26.1511 9.27444 26.2257 9.31744C26.3002 9.36043 26.3655 9.41768 26.4179 9.48591C26.4702 9.55414 26.5087 9.63202 26.531 9.7151C26.5532 9.79819 26.5589 9.88484 26.5477 9.97013C26.5365 10.0554 26.5086 10.1376 26.4656 10.2122ZM29.0554 12.9904L27.4011 15.8552C27.3581 15.9299 27.3007 15.9953 27.2324 16.0478C27.1641 16.1003 27.0861 16.1388 27.0029 16.1612C26.9197 16.1835 26.8329 16.1893 26.7475 16.1781C26.662 16.1669 26.5796 16.139 26.505 16.096C26.4303 16.0529 26.3649 15.9956 26.3124 15.9273C26.2599 15.859 26.2214 15.781 26.199 15.6978C26.1767 15.6146 26.1709 15.5278 26.1821 15.4424C26.1933 15.3569 26.2212 15.2746 26.2642 15.1999L27.918 12.3356C28.0048 12.1851 28.1479 12.0753 28.3157 12.0303C28.4835 11.9853 28.6623 12.0088 28.8128 12.0956C28.9633 12.1825 29.0731 12.3255 29.1181 12.4933C29.1631 12.6611 29.1396 12.8399 29.0527 12.9904H29.0554Z" fill="black"/>
</svg>
