<svg width="42" height="46" viewBox="0 0 42 46" fill="none" xmlns="http://www.w3.org/2000/svg">
<path d="M41.0001 6.98114C40.9871 5.44134 40.3697 3.96829 39.2808 2.87945C38.192 1.7906 36.7189 1.17315 35.1791 1.16016H5.87521C4.58209 1.16016 3.34194 1.67384 2.42757 2.58821C1.5132 3.50258 0.999512 4.74274 0.999512 6.03585V20.9614C0.999512 22.281 1.52368 23.5464 2.45671 24.4794C3.38974 25.4125 4.65521 25.9366 5.97471 25.9366H8.76082V33.0512C8.76082 33.7045 8.88951 34.3515 9.13954 34.9551C9.38956 35.5587 9.75603 36.1072 10.218 36.5692C10.68 37.0312 11.2285 37.3976 11.8321 37.6477C12.4357 37.8977 13.0827 38.0264 13.736 38.0264H19.5073L19.3082 43.7976C19.3022 43.978 19.3453 44.1566 19.4329 44.3143C19.5205 44.4721 19.6494 44.603 19.8058 44.6931L20.3033 44.8424C20.4963 44.8468 20.6865 44.7949 20.8506 44.6931L24.8805 42.106L28.9104 44.6931C29.065 44.7956 29.2451 44.8527 29.4305 44.8582C29.6159 44.8636 29.7991 44.8172 29.9595 44.7241C30.1199 44.6309 30.251 44.4949 30.3382 44.3312C30.4253 44.1675 30.465 43.9827 30.4527 43.7976L30.2537 38.0264H36.0249C36.6783 38.0264 37.3252 37.8977 37.9288 37.6477C38.5325 37.3976 39.0809 37.0312 39.5429 36.5692C40.0049 36.1072 40.3714 35.5587 40.6214 34.9551C40.8714 34.3515 41.0001 33.7045 41.0001 33.0512V6.98114ZM8.71107 23.9466H5.97471C5.18301 23.9466 4.42373 23.6321 3.86391 23.0722C3.30409 22.5124 2.98959 21.7532 2.98959 20.9614V6.03585C2.98959 5.27054 3.29361 4.53657 3.83477 3.99541C4.37593 3.45426 5.10989 3.15024 5.87521 3.15024C6.64052 3.15024 7.37449 3.45426 7.91564 3.99541C8.4568 4.53657 8.76082 5.27054 8.76082 6.03585L8.71107 23.9466ZM24.8805 34.5935C23.7193 34.5935 22.5843 34.2492 21.6189 33.6041C20.6534 32.959 19.901 32.0421 19.4566 30.9694C19.0123 29.8967 18.896 28.7162 19.1225 27.5774C19.3491 26.4386 19.9082 25.3926 20.7292 24.5715C21.5503 23.7505 22.5963 23.1914 23.7351 22.9648C24.874 22.7383 26.0544 22.8546 27.1271 23.2989C28.1998 23.7432 29.1167 24.4957 29.7618 25.4612C30.4069 26.4266 30.7512 27.5616 30.7512 28.7228C30.7512 30.2798 30.1327 31.773 29.0317 32.874C27.9307 33.975 26.4375 34.5935 24.8805 34.5935ZM25.4277 40.116C25.2707 40.0191 25.0898 39.9678 24.9053 39.9678C24.7208 39.9678 24.54 40.0191 24.3829 40.116L21.3978 42.0065L21.6466 35.8373C22.6747 36.3173 23.7956 36.5661 24.9302 36.5661C26.0649 36.5661 27.1857 36.3173 28.2139 35.8373L28.4626 42.0065L25.4277 40.116ZM39.01 33.0512C39.01 33.8429 38.6955 34.6022 38.1357 35.162C37.5759 35.7218 36.8166 36.0363 36.0249 36.0363H30.1542V34.5437C31.3452 33.4845 32.1861 32.0882 32.5653 30.5401C32.9445 28.9919 32.8442 27.3651 32.2775 25.8753C31.7109 24.3855 30.7048 23.1032 29.3926 22.1984C28.0804 21.2936 26.5241 20.809 24.9302 20.809C23.3363 20.809 21.7801 21.2936 20.4679 22.1984C19.1557 23.1032 18.1495 24.3855 17.5829 25.8753C17.0163 27.3651 16.9159 28.9919 17.2951 30.5401C17.6743 32.0882 18.5152 33.4845 19.7063 34.5437V36.0363H13.6863C12.8946 36.0363 12.1353 35.7218 11.5755 35.162C11.0157 34.6022 10.7011 33.8429 10.7011 33.0512V6.03585C10.7048 4.99732 10.3732 3.98534 9.75586 3.15024H35.1791C36.1911 3.16313 37.1581 3.57088 37.8737 4.28654C38.5894 5.0022 38.9971 5.96913 39.01 6.98114V33.0512Z" fill="black" stroke="white" stroke-width="0.4"/>
<path d="M25.1296 14.3945H16.1742C15.9103 14.3945 15.6572 14.4994 15.4706 14.686C15.284 14.8726 15.1792 15.1257 15.1792 15.3896C15.1792 15.6535 15.284 15.9066 15.4706 16.0932C15.6572 16.2798 15.9103 16.3846 16.1742 16.3846H25.1296C25.3935 16.3846 25.6466 16.2798 25.8332 16.0932C26.0198 15.9066 26.1246 15.6535 26.1246 15.3896C26.1246 15.1257 26.0198 14.8726 25.8332 14.686C25.6466 14.4994 25.3935 14.3945 25.1296 14.3945Z" fill="black" stroke="white" stroke-width="0.4"/>
<path d="M32.8909 8.125H16.1742C15.9103 8.125 15.6572 8.22983 15.4706 8.41644C15.284 8.60305 15.1792 8.85614 15.1792 9.12004C15.1792 9.38394 15.284 9.63703 15.4706 9.82364C15.6572 10.0102 15.9103 10.1151 16.1742 10.1151H32.8909C33.1548 10.1151 33.4079 10.0102 33.5945 9.82364C33.7811 9.63703 33.8859 9.38394 33.8859 9.12004C33.8859 8.85614 33.7811 8.60305 33.5945 8.41644C33.4079 8.22983 33.1548 8.125 32.8909 8.125Z" fill="black" stroke="white" stroke-width="0.4"/>
</svg>
