<svg width="52" height="52" viewBox="0 0 52 52" fill="none" xmlns="http://www.w3.org/2000/svg">
<path d="M49.8415 34.6575L46.5326 18.0477C46.4493 17.6307 46.2084 17.2698 45.8529 17.0327C45.498 16.7955 45.0724 16.7106 44.6548 16.7939L40.3966 17.6423C39.5333 17.8143 38.9709 18.6569 39.1428 19.5196L39.1837 19.7245C36.6314 20.5713 33.53 20.8149 29.6708 17.6307C27.9129 16.1805 25.6223 16.1327 23.9705 17.5118L22.2476 18.9503H12.8648C12.7597 18.313 12.2731 17.775 11.603 17.6418L7.34481 16.7934C6.92722 16.71 6.5022 16.7949 6.14669 17.0321C5.79171 17.2693 5.55028 17.6296 5.46697 18.0472L2.1586 34.6575C1.98669 35.5208 2.54914 36.3629 3.41244 36.5348L7.6706 37.3832C7.77514 37.4039 7.8802 37.4145 7.98473 37.4145C8.29673 37.4145 8.60236 37.3222 8.86873 37.1445C9.22371 36.9073 9.46514 36.547 9.54844 36.1294L9.5686 36.0286L19.6683 46.1283C20.2673 46.7273 21.0664 47.0574 21.9181 47.0574C22.7697 47.0574 23.5688 46.7273 24.1679 46.1283C24.595 45.7011 24.8853 45.1726 25.0168 44.5958L26.4208 45.9998C27.6614 47.2404 29.6804 47.2404 30.921 45.9998C31.3577 45.5626 31.641 45.0294 31.77 44.4674C32.3653 45.0469 33.1511 45.3652 33.9884 45.3652C34.8401 45.3652 35.6392 45.0352 36.2382 44.4361C36.928 43.7463 37.2342 42.8167 37.1567 41.9136C37.2469 41.921 37.3371 41.9247 37.4289 41.9247C38.2806 41.9247 39.0797 41.5947 39.6787 40.9956C40.5182 40.1562 40.8052 38.9024 40.4593 37.7886L42.3976 35.8503L42.4533 36.1305C42.5366 36.5475 42.778 36.9083 43.133 37.1455C43.3994 37.3233 43.705 37.4156 44.017 37.4156C44.1215 37.4156 44.2266 37.4055 44.3306 37.3843L48.5888 36.5358C49.4515 36.3629 50.014 35.5208 49.8415 34.6575ZM8.0362 35.8986C8.02028 35.9092 7.99481 35.9203 7.96297 35.914L3.70481 35.0655C3.65334 35.0554 3.61726 35.0013 3.62734 34.9498L6.93624 18.3401C6.9426 18.3083 6.96277 18.2891 6.97869 18.2785C6.99142 18.27 7.00999 18.261 7.03387 18.261C7.03971 18.261 7.04607 18.2616 7.05244 18.2626L11.3106 19.1111C11.3621 19.1211 11.3982 19.1753 11.3881 19.2267L8.07918 35.8365C8.07228 35.8689 8.05211 35.888 8.0362 35.8986ZM38.6191 39.9355C38.3028 40.2517 37.88 40.4258 37.4284 40.4258C36.9769 40.4258 36.554 40.2517 36.2377 39.9355L28.9933 32.6916C28.7009 32.3992 28.2265 32.3992 27.9342 32.6916C27.6418 32.9839 27.6418 33.4583 27.9342 33.7507L35.1781 40.9946C35.8344 41.6509 35.8344 42.7196 35.1781 43.376C34.8618 43.6922 34.4389 43.8662 33.9874 43.8662C33.5358 43.8662 33.1129 43.6922 32.7967 43.376L25.1421 35.7219C24.8497 35.4295 24.3753 35.4295 24.083 35.7219C23.7906 36.0142 23.7906 36.4886 24.083 36.781L29.8603 42.5583L29.8608 42.5588C30.5172 43.2152 30.5172 44.2833 29.8608 44.9402C29.2044 45.5971 28.1358 45.5966 27.4794 44.9402L21.2914 38.7522C20.9991 38.4598 20.5247 38.4598 20.2323 38.7522C19.94 39.0446 19.94 39.5189 20.2323 39.8113L23.1088 42.6878C23.425 43.004 23.5991 43.4269 23.5991 43.8785C23.5991 44.33 23.425 44.7529 23.1088 45.0691C22.7925 45.3854 22.3696 45.5594 21.9181 45.5594C21.4665 45.5594 21.0436 45.3854 20.7274 45.0691L9.91987 34.2622L12.6716 20.4493H20.4541L18.2616 22.2799C17.3124 23.0721 16.9048 24.1529 17.1431 25.2449L18.875 33.1813C18.918 33.3787 19.039 33.5506 19.2109 33.6573C19.3823 33.7639 19.5897 33.7974 19.7861 33.7485C21.8661 33.236 23.2568 32.2336 24.0379 30.6837C24.7128 29.3445 24.8471 27.8205 24.9887 26.2075C25.0068 26.0027 25.0248 25.7962 25.0444 25.5893C25.0466 25.5718 25.0497 25.5596 25.0519 25.5511C25.3103 25.4423 26.5811 25.6938 28.5284 27.4634L38.9576 38.0449C39.2447 38.6785 39.112 39.4425 38.6191 39.9355ZM39.5827 36.5454L29.5806 26.3974C29.5711 26.3879 29.5615 26.3789 29.5515 26.3693C27.5548 24.5504 25.6753 23.721 24.5218 24.1508C23.979 24.353 23.6272 24.8157 23.5555 25.4195C23.555 25.4254 23.554 25.4312 23.5534 25.4376C23.5333 25.6514 23.5147 25.8642 23.4961 26.0759C23.2531 28.8356 23.0578 31.0578 20.1665 32.075L18.606 24.9245C18.4484 24.2018 18.9238 23.677 19.221 23.4287L24.9304 18.6616C26.0112 17.7591 27.5335 17.8089 28.7179 18.7863C33.0562 22.3658 36.6882 22.0926 39.4787 21.2038L42.0442 34.0828L39.5827 36.5454ZM48.2953 35.066L44.0372 35.9145C44.0053 35.9209 43.9793 35.9097 43.964 35.8991C43.948 35.8885 43.9279 35.8694 43.9215 35.8376L40.6126 19.2278C40.6025 19.1763 40.6386 19.1222 40.6901 19.1121L44.9482 18.2637C44.9801 18.2573 45.0061 18.2685 45.022 18.2791C45.0379 18.2897 45.0581 18.3088 45.0644 18.3406L48.3733 34.9504C48.3829 35.0018 48.3468 35.056 48.2953 35.066ZM25.2514 10.938V5.69401C25.2514 5.28013 25.5867 4.94531 26.0001 4.94531C26.4134 4.94531 26.7488 5.28066 26.7488 5.69401V10.938C26.7488 11.3519 26.4134 11.6867 26.0001 11.6867C25.5867 11.6867 25.2514 11.3514 25.2514 10.938ZM18.5031 7.90348C18.2961 7.54531 18.4187 7.08739 18.7774 6.88046C19.1355 6.67352 19.5935 6.79662 19.8004 7.15478L22.4227 11.6963C22.6296 12.0545 22.5071 12.5124 22.1484 12.7193C22.0306 12.7872 21.9016 12.8196 21.7748 12.8196C21.5159 12.8196 21.2644 12.6854 21.1253 12.445L18.5031 7.90348ZM13.4898 12.168C13.6968 11.8098 14.1547 11.6867 14.5128 11.8937L19.0544 14.5154C19.4125 14.7224 19.5351 15.1803 19.3287 15.5385C19.1902 15.7788 18.9382 15.9131 18.6792 15.9131C18.5524 15.9131 18.4235 15.8807 18.3057 15.8128L13.7642 13.191C13.4055 12.9841 13.2829 12.5262 13.4898 12.168ZM29.578 11.6958L32.2003 7.15425C32.4072 6.79609 32.8651 6.67299 33.2233 6.87992C33.5815 7.08686 33.704 7.54478 33.4976 7.90295L30.8753 12.4445C30.7368 12.6848 30.4848 12.8191 30.2259 12.8191C30.0991 12.8191 29.9701 12.7867 29.8523 12.7188C29.4936 12.5124 29.3711 12.0539 29.578 11.6958ZM32.9463 14.5154L37.4878 11.8937C37.846 11.6867 38.3039 11.8098 38.5109 12.168C38.7178 12.5262 38.5952 12.9841 38.2365 13.191L33.695 15.8128C33.5772 15.8807 33.4483 15.9131 33.3215 15.9131C33.0625 15.9131 32.811 15.7788 32.672 15.5385C32.4651 15.1808 32.5876 14.7224 32.9463 14.5154Z" fill="black"/>
</svg>
