<svg width="52" height="52" viewBox="0 0 52 52" fill="none" xmlns="http://www.w3.org/2000/svg">
<path d="M45.0666 4.33203H6.93325C5.50325 4.33203 4.33325 5.50203 4.33325 6.93203V45.0654C4.33325 46.4954 5.50325 47.6654 6.93325 47.6654H45.0666C46.4966 47.6654 47.6666 46.4954 47.6666 45.0654V6.93203C47.6666 5.50203 46.4966 4.33203 45.0666 4.33203ZM45.9333 45.0654C45.9333 45.542 45.5433 45.932 45.0666 45.932H6.93325C6.45659 45.932 6.06659 45.542 6.06659 45.0654V14.316H45.9333V45.0654ZM45.9333 12.5827H6.06659V6.93203C6.06659 6.45536 6.45659 6.06536 6.93325 6.06536H45.0666C45.5433 6.06536 45.9333 6.45536 45.9333 6.93203V12.5827Z" fill="black"/>
<path d="M9.24728 7.88672C8.77062 7.88672 8.38062 8.27672 8.38062 8.75339V9.89739C8.38062 10.3741 8.77062 10.7641 9.24728 10.7641C9.72395 10.7641 10.1139 10.3741 10.1139 9.89739V8.75339C10.1139 8.27672 9.72395 7.88672 9.24728 7.88672Z" fill="black"/>
<path d="M12.757 7.88672C12.2804 7.88672 11.8904 8.27672 11.8904 8.75339V9.89739C11.8904 10.3741 12.2804 10.7641 12.757 10.7641C13.2337 10.7641 13.6237 10.3741 13.6237 9.89739V8.75339C13.6237 8.27672 13.2337 7.88672 12.757 7.88672Z" fill="black"/>
<path d="M16.2668 7.88672C15.7901 7.88672 15.4001 8.27672 15.4001 8.75339V9.89739C15.4001 10.3741 15.7901 10.7641 16.2668 10.7641C16.7435 10.7641 17.1335 10.3741 17.1335 9.89739V8.75339C17.1335 8.27672 16.7435 7.88672 16.2668 7.88672Z" fill="black"/>
<path d="M42.7527 8.45703H25.1247C24.6481 8.45703 24.2581 8.84703 24.2581 9.3237C24.2581 9.80036 24.6481 10.1904 25.1247 10.1904H42.7527C43.2294 10.1904 43.6194 9.80036 43.6194 9.3237C43.6194 8.84703 43.2294 8.45703 42.7527 8.45703Z" fill="black"/>
<path d="M25.7834 41.9642C25.8527 41.9815 25.922 41.9902 26 41.9902C26.078 41.9902 26.1474 41.9815 26.2167 41.9642C26.312 41.9382 35.36 39.5202 35.36 29.1809V22.1782C35.36 21.8142 35.126 21.4849 34.788 21.3635L26.2947 18.3215C26.104 18.2522 25.896 18.2522 25.714 18.3215L17.2207 21.3635C16.874 21.4849 16.6487 21.8142 16.6487 22.1782V29.1809C16.64 39.5115 25.6967 41.9382 25.7834 41.9642ZM18.3734 22.7762L26 20.0462L33.6267 22.7762V29.1722C33.6267 37.4055 27.2914 39.8149 26 40.2222C24.7087 39.8149 18.3734 37.4055 18.3734 29.1722V22.7762Z" fill="black"/>
<path d="M24.4231 32.9415C24.5964 33.1149 24.8131 33.1929 25.0384 33.1929C25.2638 33.1929 25.4804 33.1062 25.6538 32.9415L30.0651 28.5302C30.4031 28.1922 30.4031 27.6462 30.0651 27.3082C29.7271 26.9702 29.1811 26.9702 28.8431 27.3082L25.0471 31.1042L23.1838 29.2409C22.8458 28.9029 22.2998 28.9029 21.9618 29.2409C21.6238 29.5789 21.6238 30.1249 21.9618 30.4629L24.4231 32.9415Z" fill="black"/>
</svg>
