<svg width="44" height="44" viewBox="0 0 44 44" fill="none" xmlns="http://www.w3.org/2000/svg">
<path d="M23.396 6.48641C23.396 6.98835 23.1335 7.29673 22.6644 7.79868C22.0804 8.42201 21.3521 9.19953 21.3521 10.6824C21.3521 10.8564 21.4212 11.0233 21.5443 11.1464C21.6673 11.2694 21.8342 11.3385 22.0082 11.3385C22.1823 11.3385 22.3492 11.2694 22.4722 11.1464C22.5952 11.0233 22.6644 10.8564 22.6644 10.6824C22.6644 9.71788 23.1073 9.24546 23.6223 8.6943C24.1374 8.14315 24.705 7.53294 24.705 6.48969C24.705 5.77447 24.4208 5.08855 23.9151 4.58282C23.4094 4.07709 22.7235 3.79297 22.0082 3.79297C21.293 3.79297 20.6071 4.07709 20.1014 4.58282C19.5956 5.08855 19.3115 5.77447 19.3115 6.48969C19.3115 6.6637 19.3807 6.8306 19.5037 6.95364C19.6268 7.07669 19.7936 7.14582 19.9677 7.14582C20.1417 7.14582 20.3086 7.07669 20.4316 6.95364C20.5547 6.8306 20.6238 6.6637 20.6238 6.48969C20.6238 6.12251 20.7697 5.77037 21.0293 5.51074C21.2889 5.2511 21.6411 5.10524 22.0082 5.10524C22.3754 5.10524 22.7276 5.2511 22.9872 5.51074C23.2468 5.77037 23.3927 6.12251 23.3927 6.48969L23.396 6.48641Z" fill="black" stroke="black" stroke-width="0.3"/>
<path d="M22.0113 13.7146C22.419 13.7146 22.7495 13.3841 22.7495 12.9764C22.7495 12.5688 22.419 12.2383 22.0113 12.2383C21.6037 12.2383 21.2732 12.5688 21.2732 12.9764C21.2732 13.3841 21.6037 13.7146 22.0113 13.7146Z" fill="black" stroke="black" stroke-width="0.3"/>
<path d="M43.0074 34.4454C43.0089 34.4213 43.0089 34.3972 43.0074 34.3732C43.009 34.3536 43.009 34.3338 43.0074 34.3142C43.0089 34.2945 43.0089 34.2748 43.0074 34.2551L42.9812 34.1895L35.1076 18.4422C35.1082 18.4346 35.1082 18.4269 35.1076 18.4193C35.0851 18.3814 35.0599 18.3452 35.0321 18.311L35.0091 18.2815C34.9717 18.2451 34.931 18.2122 34.8878 18.1831H34.8549C34.8181 18.1603 34.7784 18.1426 34.7368 18.1306H34.6975C34.6286 18.0953 34.5543 18.072 34.4777 18.0617H22.6672V16.7199C24.6915 16.5506 26.5721 15.6055 27.9158 14.0821C29.2596 12.5587 29.9626 10.5749 29.8779 8.54528C29.7932 6.51568 28.9273 4.59735 27.4613 3.19123C25.9952 1.7851 24.0425 1 22.0111 1C19.9797 1 18.027 1.7851 16.5609 3.19123C15.0949 4.59735 14.229 6.51568 14.1443 8.54528C14.0596 10.5749 14.7626 12.5587 16.1063 14.0821C17.4501 15.6055 19.3307 16.5506 21.355 16.7199V18.0617H9.54451C9.4891 18.0626 9.43402 18.0704 9.38047 18.0846H9.34111C9.29955 18.0967 9.25982 18.1144 9.223 18.1371H9.1902C9.1469 18.1663 9.10628 18.1992 9.06881 18.2355L9.04584 18.2651C9.01808 18.2993 8.99286 18.3355 8.97039 18.3733C8.96977 18.381 8.96977 18.3887 8.97039 18.3963L1.09676 34.1436L1.07051 34.2092C1.06905 34.2288 1.06905 34.2486 1.07051 34.2682C1.06894 34.2879 1.06894 34.3076 1.07051 34.3273C1.06904 34.3513 1.06904 34.3754 1.07051 34.3995C1.07051 34.3995 1.07051 34.3995 1.07051 34.4191C1.07051 36.6814 1.96918 38.851 3.56882 40.4506C5.16847 42.0502 7.33805 42.9489 9.60028 42.9489C11.8625 42.9489 14.0321 42.0502 15.6317 40.4506C17.2314 38.851 18.13 36.6814 18.13 34.4191C18.13 34.4191 18.13 34.4191 18.13 34.3995C18.1315 34.3754 18.1315 34.3513 18.13 34.3273C18.1316 34.3076 18.1316 34.2879 18.13 34.2682C18.1315 34.2486 18.1315 34.2288 18.13 34.2092L18.1038 34.1436L10.6074 19.3739H21.355V21.3424C21.355 21.5164 21.4241 21.6833 21.5471 21.8063C21.6702 21.9294 21.8371 21.9985 22.0111 21.9985C22.1851 21.9985 22.352 21.9294 22.475 21.8063C22.5981 21.6833 22.6672 21.5164 22.6672 21.3424V19.3739H33.4147L26.0168 34.1731L25.9906 34.2387C25.9891 34.2584 25.9891 34.2781 25.9906 34.2978C25.989 34.3174 25.989 34.3372 25.9906 34.3568C25.9891 34.3808 25.9891 34.4049 25.9906 34.429C25.9906 34.429 25.9906 34.429 25.9906 34.4487C25.9906 36.7109 26.8892 38.8805 28.4889 40.4801C30.0885 42.0798 32.2581 42.9784 34.5203 42.9784C36.7826 42.9784 38.9521 42.0798 40.5518 40.4801C42.1514 38.8805 43.0501 36.7109 43.0501 34.4487C43.0501 34.4487 43.0074 34.4651 43.0074 34.4454ZM15.4497 8.87577C15.4497 7.57806 15.8345 6.30948 16.5555 5.23047C17.2765 4.15146 18.3012 3.31048 19.5002 2.81386C20.6991 2.31725 22.0184 2.18731 23.2911 2.44049C24.5639 2.69366 25.733 3.31857 26.6507 4.23619C27.5683 5.15381 28.1932 6.32293 28.4464 7.59571C28.6995 8.86849 28.5696 10.1878 28.073 11.3867C27.5764 12.5856 26.7354 13.6104 25.6564 14.3313C24.5774 15.0523 23.3088 15.4371 22.0111 15.4371C20.2709 15.4371 18.602 14.7458 17.3715 13.5154C16.141 12.2849 15.4497 10.616 15.4497 8.87577ZM9.54451 20.1843L16.3552 33.8089H2.73382L9.54451 20.1843ZM9.54451 41.6826C7.74383 41.6827 6.00816 41.0096 4.67825 39.7957C3.34833 38.5817 2.52024 36.9144 2.35654 35.1212H16.7325C16.5688 36.9144 15.7407 38.5817 14.4108 39.7957C13.0809 41.0096 11.3452 41.6827 9.54451 41.6826ZM41.2884 33.8089H27.667L34.4777 20.1843L41.2884 33.8089ZM34.4777 41.6826C32.677 41.6827 30.9413 41.0096 29.6114 39.7957C28.2815 38.5817 27.4534 36.9144 27.2897 35.1212H41.6656C41.5019 36.9144 40.6738 38.5817 39.3439 39.7957C38.014 41.0096 36.2783 41.6827 34.4777 41.6826Z" fill="black" stroke="black" stroke-width="0.3"/>
</svg>
