<svg width="44" height="44" viewBox="0 0 44 44" fill="none" xmlns="http://www.w3.org/2000/svg">
<path d="M42.0586 1.83984C42.0586 2.37812 42.0586 2.91133 42.0586 3.44961C42.0586 4.84609 42.0586 6.24766 42.0586 7.64414C42.0586 9.59414 42.0586 11.5441 42.0586 13.4941C42.0586 15.6574 42.0586 17.8156 42.0586 19.9789C42.0586 22.066 42.0586 24.1531 42.0586 26.2453C42.0586 27.9109 42.0586 29.5816 42.0586 31.2473C42.0586 32.202 42.0586 33.1516 42.0586 34.1063C42.0586 34.1926 42.0535 34.2789 42.0586 34.3652C42.0586 34.3855 42.0586 34.4008 42.0586 34.4211V34.4262C42.0586 34.3043 42.0738 34.3805 42.0586 34.4262C42.084 34.3906 42.0992 34.3043 42.0586 34.4262C42.0687 34.4109 42.1551 34.3043 42.0586 34.4262C42.0992 34.3551 42.1195 34.4008 42.0281 34.4414C41.9215 34.4871 42.1297 34.3855 42.023 34.4312C41.9723 34.4516 41.9672 34.4211 42.0535 34.4262H42.0484C42.0332 34.4262 42.018 34.4262 42.0078 34.4262C41.952 34.416 41.8859 34.4262 41.825 34.4262C41.5812 34.4262 41.3375 34.4262 41.0938 34.4262C39.1793 34.4262 37.2699 34.4262 35.3555 34.4262C33.7152 34.4262 32.0801 34.4262 30.4398 34.4262C30.3484 34.4262 30.2621 34.4262 30.1707 34.4262C30.3891 34.807 30.6074 35.1879 30.8309 35.5738C32.1055 33.0652 32.3645 30.0945 31.4453 27.4234C30.5312 24.7625 28.5355 22.4926 25.966 21.3246C23.5336 20.2176 20.7152 20.0348 18.1812 20.9184C15.5406 21.8375 13.291 23.823 12.123 26.3773C10.9551 28.9316 10.8129 31.9176 11.8539 34.543C11.991 34.8934 12.1434 35.2387 12.316 35.5738C12.5344 35.193 12.7527 34.8121 12.9762 34.4262C11.8133 34.4262 10.6504 34.4262 9.4875 34.4262C7.54765 34.4262 5.60781 34.4262 3.66796 34.4262C3.12968 34.4262 2.59648 34.4262 2.0582 34.4262C2.01757 34.4262 1.97695 34.4211 1.9414 34.4262C1.9414 34.4262 2.04804 34.4566 1.93632 34.4262C1.93632 34.4566 2.09882 34.4719 1.93632 34.4262C1.92617 34.4211 1.91601 34.416 1.91093 34.4109C1.86523 34.3805 1.87539 34.3855 1.93632 34.4312C1.84492 34.3094 1.92617 34.416 1.93632 34.4312C1.8957 34.3754 1.91093 34.3602 1.93632 34.4312C1.86523 34.2434 1.93632 34.4922 1.93632 34.4109C1.93632 34.3906 1.93632 34.3652 1.93632 34.3449C1.96171 33.6543 1.93632 32.9586 1.93632 32.268C1.93632 30.8512 1.93632 29.4344 1.93632 28.0227C1.93632 26.1539 1.93632 24.2801 1.93632 22.4113C1.93632 20.3547 1.93632 18.298 1.93632 16.2414C1.93632 14.2609 1.93632 12.2805 1.93632 10.2949C1.93632 8.675 1.93632 7.05 1.93632 5.43008C1.93632 4.42969 1.93632 3.42422 1.93632 2.42383C1.93632 2.24102 1.93632 2.05312 1.93632 1.87031C1.93632 1.83984 1.92109 1.83984 1.93124 1.88047C1.93124 1.89063 1.92617 1.90078 1.92617 1.91094C1.95156 1.83477 1.94648 1.82461 1.92617 1.87539C1.90078 1.88555 1.90585 1.8957 1.9414 1.84492C1.82968 1.99219 1.93632 1.83984 1.9414 1.84492C1.92617 1.81953 2.09882 1.75859 1.9414 1.84492C1.99726 1.81445 1.98203 1.79922 1.97187 1.82969C1.96171 1.83477 1.95156 1.83984 1.9414 1.84492C2.01757 1.82969 2.02773 1.82461 1.97187 1.83984C1.96679 1.83984 1.92617 1.84492 1.9414 1.84492C1.97187 1.84492 2.00742 1.84492 2.03789 1.84492C2.64726 1.86016 3.25664 1.84492 3.86601 1.84492C5.10507 1.84492 6.34414 1.84492 7.5832 1.84492C9.27421 1.84492 10.9652 1.84492 12.6562 1.84492C14.6316 1.84492 16.607 1.84492 18.5824 1.84492C20.6492 1.84492 22.716 1.84492 24.7777 1.84492C26.7633 1.84492 28.7488 1.84492 30.7344 1.84492C32.466 1.84492 34.1926 1.84492 35.9242 1.84492C37.2191 1.84492 38.5141 1.84492 39.809 1.84492C40.4945 1.84492 41.175 1.84492 41.8605 1.84492C41.9164 1.84492 41.9672 1.84492 42.023 1.84492C42.0383 1.83984 42.0484 1.83984 42.0586 1.83984C42.0687 1.83984 42.0383 1.82969 42.0281 1.83477C42.018 1.83477 42.0078 1.82969 41.9977 1.82969C42.0738 1.85508 42.084 1.85 42.0332 1.82969C42.018 1.79414 42.0027 1.80938 42.0586 1.83984C42.0738 1.81953 41.9012 1.75352 42.0586 1.83984C42.1703 1.98711 42.0637 1.83477 42.0586 1.83984C42.0687 1.85508 42.1297 1.92617 42.0738 1.87031C42.0281 1.81953 42.0637 1.99727 42.0586 1.83984C42.0789 2.23594 42.3937 2.62188 42.8203 2.60156C43.2164 2.58125 43.6023 2.26641 43.582 1.83984C43.5414 0.920703 42.8305 0.316406 41.9367 0.316406C41.7031 0.316406 41.4746 0.316406 41.241 0.316406C40.2508 0.316406 39.2605 0.316406 38.2703 0.316406C36.7367 0.316406 35.2031 0.316406 33.6695 0.316406C31.7652 0.316406 29.866 0.316406 27.9617 0.316406C25.8797 0.316406 23.8027 0.316406 21.7207 0.316406C19.659 0.316406 17.5922 0.316406 15.5305 0.316406C13.6516 0.316406 11.7727 0.316406 9.89375 0.316406C8.3957 0.316406 6.89765 0.316406 5.39453 0.316406C4.46523 0.316406 3.53085 0.316406 2.60156 0.316406C2.40351 0.316406 2.20546 0.316406 2.00742 0.316406C1.1289 0.326563 0.448432 0.966406 0.417963 1.85C0.397651 2.42383 0.417963 3.00273 0.417963 3.58164C0.417963 4.9375 0.417963 6.28828 0.417963 7.64414C0.417963 9.50781 0.417963 11.3664 0.417963 13.2301C0.417963 15.3121 0.417963 17.3941 0.417963 19.4812C0.417963 21.4973 0.417963 23.5133 0.417963 25.5293C0.417963 27.2102 0.417963 28.8961 0.417963 30.577C0.417963 31.6383 0.417963 32.6996 0.417963 33.7609C0.417963 33.9691 0.412885 34.1773 0.417963 34.3855C0.42812 35.3047 1.13906 35.9445 2.03789 35.9496C3.49531 35.9547 4.94765 35.9496 6.40507 35.9496C8.26874 35.9496 10.1375 35.9496 12.0012 35.9496C12.3262 35.9496 12.6512 35.9496 12.9812 35.9496C13.5855 35.9496 13.8953 35.3098 13.6414 34.802C13.5754 34.6699 13.5094 34.5328 13.4434 34.3957C13.4129 34.3297 13.3824 34.2586 13.3519 34.1926C13.357 34.2078 13.3875 34.284 13.357 34.2027C13.3316 34.1469 13.3113 34.0859 13.291 34.0301C13.1793 33.7406 13.0828 33.4461 13.0016 33.1516C12.9152 32.8418 12.8492 32.532 12.7934 32.2172C12.7832 32.1461 12.768 32.0699 12.7578 31.9988C12.7426 31.9074 12.7578 32.0039 12.7578 32.0191C12.7527 31.9836 12.7477 31.948 12.7426 31.9074C12.7223 31.75 12.707 31.5926 12.6969 31.4301C12.6562 30.8055 12.6715 30.1809 12.7527 29.5613C12.7629 29.4699 12.7527 29.5664 12.7477 29.5816C12.7527 29.5461 12.7578 29.5105 12.7629 29.475C12.773 29.4039 12.7883 29.3277 12.7984 29.2566C12.8289 29.0891 12.8644 28.9164 12.9051 28.7539C12.9762 28.4543 13.0625 28.1547 13.159 27.8652C13.2047 27.723 13.2555 27.5859 13.3113 27.4488C13.3215 27.4184 13.3926 27.2508 13.3469 27.3523C13.3875 27.2609 13.4281 27.1695 13.4687 27.0781C13.6008 26.7938 13.748 26.5145 13.9055 26.2453C14.073 25.9609 14.2559 25.6867 14.4539 25.4176C14.525 25.3211 14.5453 25.2906 14.6672 25.1484C14.7738 25.0164 14.8855 24.8895 15.0023 24.7676C15.2258 24.5238 15.4644 24.2953 15.7082 24.0719C15.8199 23.9754 15.9316 23.8789 16.0484 23.7875C16.0738 23.7672 16.216 23.6555 16.1246 23.7266C16.1906 23.6758 16.2617 23.625 16.3277 23.5742C16.8254 23.2188 17.3535 22.909 17.907 22.6551C17.973 22.6246 18.034 22.5992 18.1 22.5688C17.9883 22.6195 18.1406 22.5535 18.1812 22.5383C18.3336 22.4773 18.491 22.4215 18.6434 22.3656C18.9227 22.2691 19.2019 22.1879 19.4863 22.1219C19.7809 22.0508 20.0805 21.9949 20.3801 21.9492C20.4715 21.934 20.3648 21.9492 20.3496 21.9543C20.3852 21.9492 20.4207 21.9441 20.4512 21.9441C20.5223 21.934 20.5883 21.9289 20.6594 21.9238C20.8117 21.9086 20.959 21.8984 21.1113 21.8934C21.4109 21.8781 21.7156 21.8781 22.0152 21.8934C22.1523 21.8984 22.2945 21.9086 22.4316 21.9238C22.5027 21.9289 22.5687 21.9391 22.6398 21.9441C22.6754 21.9492 22.7109 21.9543 22.7414 21.9543C22.8633 21.9695 22.6246 21.9391 22.7465 21.9543C23.3355 22.0406 23.9144 22.1777 24.4832 22.3707C24.6254 22.4215 24.7727 22.4723 24.9148 22.5281C24.9453 22.5383 25.1078 22.6094 25.0519 22.584C24.9758 22.5535 25.0875 22.5992 25.0926 22.5992C25.1332 22.6195 25.1789 22.6398 25.2195 22.6551C25.4887 22.777 25.7527 22.9141 26.0117 23.0664C26.2809 23.2238 26.5449 23.3914 26.7988 23.5742C26.8598 23.6148 26.9156 23.6605 26.9766 23.7012C27.0477 23.752 26.9816 23.7012 26.9664 23.691C26.9969 23.7113 27.0223 23.7367 27.0527 23.757C27.1797 23.8586 27.3016 23.9602 27.4184 24.0668C27.6672 24.2852 27.9008 24.5188 28.1242 24.7625C28.2309 24.8793 28.3324 24.9961 28.434 25.1129C28.4848 25.1738 28.5305 25.2348 28.5812 25.2906C28.5812 25.2906 28.6574 25.3871 28.6168 25.3363C28.5812 25.2906 28.6676 25.4023 28.6727 25.4125C29.0586 25.9305 29.3887 26.4891 29.6578 27.073C29.6934 27.1543 29.7289 27.2305 29.7645 27.3117C29.8 27.393 29.7645 27.3168 29.7594 27.3016C29.7746 27.3371 29.7898 27.3727 29.8 27.4031C29.8609 27.5504 29.9168 27.7027 29.9676 27.8551C30.0691 28.1445 30.1504 28.4441 30.2215 28.7437C30.257 28.9012 30.2926 29.0535 30.318 29.2109C30.3332 29.282 30.3434 29.3582 30.3535 29.4293C30.3586 29.4648 30.3637 29.5004 30.3687 29.5359C30.3891 29.6629 30.3535 29.4242 30.3738 29.5512C30.4094 29.8559 30.4348 30.1605 30.4449 30.4652C30.4551 30.7852 30.45 31.1 30.4246 31.4199C30.4145 31.5672 30.3992 31.7145 30.384 31.8566C30.3789 31.8973 30.3535 32.0699 30.3738 31.948C30.3637 32.0344 30.3484 32.1156 30.3332 32.202C30.2266 32.8215 30.059 33.4309 29.8355 34.0199C29.8203 34.0555 29.7492 34.2434 29.7645 34.2078C29.7949 34.1367 29.7441 34.2535 29.7441 34.2535C29.7289 34.2891 29.7137 34.3195 29.6984 34.3551C29.6324 34.5023 29.5613 34.6496 29.4852 34.7918C29.2262 35.2996 29.541 35.9395 30.1453 35.9395C31.3844 35.9395 32.6184 35.9395 33.8574 35.9395C35.9293 35.9395 38.0012 35.9395 40.0781 35.9395C40.6723 35.9395 41.2664 35.9395 41.8605 35.9395C42.1754 35.9395 42.4852 35.9039 42.7695 35.7465C43.2723 35.4672 43.5363 34.9492 43.5516 34.3906C43.5719 33.7203 43.5516 33.0449 43.5516 32.3695C43.5516 30.8664 43.5516 29.3633 43.5516 27.8602C43.5516 25.8391 43.5516 23.823 43.5516 21.802C43.5516 19.6082 43.5516 17.4145 43.5516 15.2207C43.5516 13.1641 43.5516 11.1023 43.5516 9.0457C43.5516 7.46641 43.5516 5.88203 43.5516 4.30273C43.5516 3.51562 43.5516 2.72852 43.5516 1.93633C43.5516 1.90078 43.5516 1.86523 43.5516 1.82969C43.5516 1.43359 43.2012 1.04766 42.7898 1.06797C42.409 1.09844 42.0586 1.41328 42.0586 1.83984Z" fill="black"/>
<path d="M1.17972 8.44201C1.55043 8.44201 1.92113 8.44201 2.29183 8.44201C3.30238 8.44201 4.318 8.44201 5.32855 8.44201C6.82152 8.44201 8.30941 8.44201 9.80238 8.44201C11.6305 8.44201 13.4586 8.44201 15.2868 8.44201C17.2825 8.44201 19.2731 8.44201 21.2688 8.44201C23.2797 8.44201 25.2907 8.44201 27.3067 8.44201C29.1856 8.44201 31.0594 8.44201 32.9383 8.44201C34.5328 8.44201 36.1223 8.44201 37.7168 8.44201C38.8594 8.44201 39.9969 8.44201 41.1395 8.44201C41.6778 8.44201 42.2211 8.45217 42.7645 8.44201C42.7899 8.44201 42.8102 8.44201 42.8356 8.44201C43.2317 8.44201 43.6176 8.09162 43.5973 7.6803C43.577 7.26897 43.2621 6.91858 42.8356 6.91858C42.4649 6.91858 42.0942 6.91858 41.7235 6.91858C40.7129 6.91858 39.6973 6.91858 38.6867 6.91858C37.1938 6.91858 35.7059 6.91858 34.2129 6.91858C32.3848 6.91858 30.5567 6.91858 28.7285 6.91858C26.7328 6.91858 24.7422 6.91858 22.7465 6.91858C20.7356 6.91858 18.7246 6.91858 16.7086 6.91858C14.8297 6.91858 12.9559 6.91858 11.077 6.91858C9.48246 6.91858 7.893 6.91858 6.29847 6.91858C5.15589 6.91858 4.01839 6.91858 2.87582 6.91858C2.33754 6.91858 1.79418 6.90842 1.25082 6.91858C1.22543 6.91858 1.20511 6.91858 1.17972 6.91858C0.783629 6.91858 0.397692 7.26897 0.418004 7.6803C0.438317 8.09162 0.753161 8.44201 1.17972 8.44201Z" fill="black"/>
<path d="M4.22157 4.3793C4.22157 4.38945 4.22157 4.40469 4.22157 4.41484C4.23172 4.34883 4.24188 4.27773 4.24696 4.21172C4.24696 4.2168 4.2368 4.28281 4.23172 4.28281C4.24696 4.24219 4.26219 4.20156 4.27743 4.16602C4.36376 4.06445 4.38407 4.03906 4.34344 4.07969C4.31805 4.10508 4.32821 4.09492 4.37899 4.0543C4.40946 4.02383 4.44501 4.00352 4.48563 3.99336C4.61258 3.94258 4.50594 3.97812 4.47547 3.9832C4.54149 3.97305 4.61258 3.96289 4.6786 3.95781C4.65321 3.96289 4.62782 3.96289 4.60243 3.95781C4.66844 3.96797 4.73954 3.97812 4.80555 3.9832C4.80047 3.9832 4.73446 3.97305 4.73446 3.96797C4.77508 3.9832 4.81571 3.99844 4.85126 4.01367C4.95282 4.1 4.97821 4.12031 4.93758 4.07969C4.91219 4.0543 4.92235 4.06445 4.96297 4.11523C4.99344 4.1457 5.01376 4.18125 5.02391 4.22187C5.07469 4.34883 5.03915 4.24219 5.03407 4.21172C5.04422 4.27773 5.05438 4.34883 5.05946 4.41484C5.05438 4.38945 5.05438 4.36406 5.05946 4.33867C5.0493 4.40469 5.03915 4.47578 5.03407 4.5418C5.03407 4.53672 5.04422 4.4707 5.0493 4.4707C5.03407 4.51133 5.01883 4.55195 5.0036 4.5875C4.91727 4.68906 4.89696 4.71445 4.93758 4.67383C4.96297 4.64844 4.95282 4.65859 4.90204 4.69922C4.87157 4.72969 4.83602 4.75 4.7954 4.76016C4.66844 4.81094 4.77508 4.77539 4.80555 4.77031C4.73954 4.78047 4.66844 4.79062 4.60243 4.7957C4.62782 4.79062 4.65321 4.79062 4.6786 4.7957C4.61258 4.78555 4.54149 4.77539 4.47547 4.77031C4.48055 4.77031 4.54657 4.78047 4.54657 4.78555C4.50594 4.77031 4.46532 4.75508 4.42977 4.73984C4.32821 4.65352 4.30282 4.6332 4.34344 4.67383C4.36883 4.69922 4.35868 4.68906 4.31805 4.63828C4.28758 4.60781 4.26727 4.57227 4.25712 4.53164C4.20633 4.40469 4.24188 4.51133 4.24696 4.5418C4.2368 4.47578 4.22665 4.40469 4.22157 4.33867C4.22157 4.35391 4.22157 4.36914 4.22157 4.3793C4.24188 4.77539 4.55672 5.16133 4.98329 5.14102C5.37938 5.12578 5.7704 4.80586 5.74501 4.3793C5.72977 4.08477 5.63329 3.81055 5.42001 3.60234C5.21688 3.39922 4.93251 3.27734 4.64305 3.27734C4.03368 3.27734 3.55633 3.78008 3.5411 4.3793C3.52586 4.97344 4.04383 5.46602 4.62274 5.47617C4.90712 5.48125 5.20672 5.36953 5.40477 5.16641C5.62313 4.94805 5.72469 4.67891 5.73993 4.37422C5.76024 3.97812 5.3743 3.59727 4.97821 3.6125C4.55165 3.63789 4.24696 3.95273 4.22157 4.3793Z" fill="black"/>
<path d="M10.6454 4.3793C10.6454 4.38945 10.6454 4.40469 10.6454 4.41484C10.6556 4.34883 10.6657 4.27773 10.6708 4.21172C10.6708 4.2168 10.6606 4.28281 10.6556 4.28281C10.6708 4.24219 10.686 4.20156 10.7013 4.16602C10.7876 4.06445 10.8079 4.03906 10.7673 4.07969C10.7419 4.10508 10.752 4.09492 10.8028 4.0543C10.8333 4.02383 10.8688 4.00352 10.9095 3.99336C11.0364 3.94258 10.9298 3.97812 10.8993 3.9832C10.9653 3.97305 11.0364 3.96289 11.1024 3.95781C11.077 3.96289 11.0516 3.96289 11.0263 3.95781C11.0923 3.96797 11.1634 3.97812 11.2294 3.9832C11.2243 3.9832 11.1583 3.97305 11.1583 3.96797C11.1989 3.9832 11.2395 3.99844 11.2751 4.01367C11.3766 4.1 11.402 4.12031 11.3614 4.07969C11.336 4.0543 11.3462 4.06445 11.3868 4.11523C11.4173 4.1457 11.4376 4.18125 11.4477 4.22187C11.4985 4.34883 11.463 4.24219 11.4579 4.21172C11.4681 4.27773 11.4782 4.34883 11.4833 4.41484C11.4782 4.38945 11.4782 4.36406 11.4833 4.33867C11.4731 4.40469 11.463 4.47578 11.4579 4.5418C11.4579 4.53672 11.4681 4.4707 11.4731 4.4707C11.4579 4.51133 11.4427 4.55195 11.4274 4.5875C11.3411 4.68906 11.3208 4.71445 11.3614 4.67383C11.3868 4.64844 11.3766 4.65859 11.3259 4.69922C11.2954 4.72969 11.2599 4.75 11.2192 4.76016C11.0923 4.81094 11.1989 4.77539 11.2294 4.77031C11.1634 4.78047 11.0923 4.79062 11.0263 4.7957C11.0516 4.79062 11.077 4.79062 11.1024 4.7957C11.0364 4.78555 10.9653 4.77539 10.8993 4.77031C10.9044 4.77031 10.9704 4.78047 10.9704 4.78555C10.9298 4.77031 10.8891 4.75508 10.8536 4.73984C10.752 4.65352 10.7266 4.6332 10.7673 4.67383C10.7927 4.69922 10.7825 4.68906 10.7419 4.63828C10.7114 4.60781 10.6911 4.57227 10.6809 4.53164C10.6302 4.40469 10.6657 4.51133 10.6708 4.5418C10.6606 4.47578 10.6505 4.40469 10.6454 4.33867C10.6454 4.35391 10.6454 4.36914 10.6454 4.3793C10.6657 4.77539 10.9806 5.16133 11.4071 5.14102C11.8032 5.12578 12.1942 4.80586 12.1688 4.3793C12.1536 4.08477 12.0571 3.81055 11.8438 3.60234C11.6407 3.39922 11.3563 3.27734 11.0669 3.27734C10.4575 3.27734 9.98016 3.78008 9.96493 4.3793C9.94969 4.97344 10.4677 5.46602 11.0466 5.47617C11.3309 5.48125 11.6306 5.36953 11.8286 5.16641C12.047 4.94805 12.1485 4.67891 12.1638 4.37422C12.1841 3.97812 11.7981 3.59727 11.402 3.6125C10.9755 3.63789 10.6708 3.95273 10.6454 4.3793Z" fill="black"/>
<path d="M7.43592 4.3793C7.43592 4.38945 7.43592 4.40469 7.43592 4.41484C7.44608 4.34883 7.45624 4.27773 7.46131 4.21172C7.46131 4.2168 7.45116 4.28281 7.44608 4.28281C7.46131 4.24219 7.47655 4.20156 7.49178 4.16602C7.57811 4.06445 7.59842 4.03906 7.5578 4.07969C7.53241 4.10508 7.54256 4.09492 7.59335 4.0543C7.62381 4.02383 7.65936 4.00352 7.69999 3.99336C7.82694 3.94258 7.7203 3.97812 7.68983 3.9832C7.75585 3.97305 7.82694 3.96289 7.89295 3.95781C7.86756 3.96289 7.84217 3.96289 7.81678 3.95781C7.8828 3.96797 7.95389 3.97812 8.01991 3.9832C8.01483 3.9832 7.94881 3.97305 7.94881 3.96797C7.98944 3.9832 8.03006 3.99844 8.06561 4.01367C8.16717 4.1 8.19256 4.12031 8.15194 4.07969C8.12655 4.0543 8.1367 4.06445 8.17733 4.11523C8.2078 4.1457 8.22811 4.18125 8.23827 4.22187C8.28905 4.34883 8.2535 4.24219 8.24842 4.21172C8.25858 4.27773 8.26874 4.34883 8.27381 4.41484C8.26874 4.38945 8.26874 4.36406 8.27381 4.33867C8.26366 4.40469 8.2535 4.47578 8.24842 4.5418C8.24842 4.53672 8.25858 4.4707 8.26366 4.4707C8.24842 4.51133 8.23319 4.55195 8.21795 4.5875C8.13163 4.68906 8.11131 4.71445 8.15194 4.67383C8.17733 4.64844 8.16717 4.65859 8.11639 4.69922C8.08592 4.72969 8.05038 4.75 8.00975 4.76016C7.8828 4.81094 7.98944 4.77539 8.01991 4.77031C7.95389 4.78047 7.8828 4.79062 7.81678 4.7957C7.84217 4.79062 7.86756 4.79062 7.89295 4.7957C7.82694 4.78555 7.75585 4.77539 7.68983 4.77031C7.69491 4.77031 7.76092 4.78047 7.76092 4.78555C7.7203 4.77031 7.67967 4.75508 7.64413 4.73984C7.54256 4.65352 7.51717 4.6332 7.5578 4.67383C7.58319 4.69922 7.57303 4.68906 7.53241 4.63828C7.50194 4.60781 7.48163 4.57227 7.47147 4.53164C7.42069 4.40469 7.45624 4.51133 7.46131 4.5418C7.45116 4.47578 7.441 4.40469 7.43592 4.33867C7.43085 4.35391 7.43592 4.36914 7.43592 4.3793C7.45624 4.77539 7.77108 5.16133 8.19764 5.14102C8.59374 5.12578 8.98475 4.80586 8.95936 4.3793C8.94413 4.08477 8.84764 3.81055 8.63436 3.60234C8.43124 3.39922 8.14686 3.27734 7.85741 3.27734C7.24803 3.27734 6.77069 3.78008 6.75545 4.3793C6.74022 4.97344 7.25819 5.46602 7.8371 5.47617C8.12147 5.48125 8.42108 5.36953 8.61913 5.16641C8.83749 4.94805 8.93905 4.67891 8.95428 4.37422C8.9746 3.97812 8.58866 3.59727 8.19256 3.6125C7.766 3.63789 7.45624 3.95273 7.43592 4.3793Z" fill="black"/>
<path d="M29.5155 34.8017C28.9976 35.8021 28.378 36.6146 27.5452 37.3763C27.3726 37.5337 27.1948 37.6861 27.012 37.8283C26.9003 37.9146 27.1542 37.7267 26.9612 37.8638C26.9206 37.8943 26.8851 37.9197 26.8444 37.9501C26.7378 38.0263 26.6261 38.1025 26.5144 38.1786C26.1284 38.4376 25.7171 38.6661 25.2956 38.8642C25.255 38.8845 25.2093 38.9048 25.1687 38.9251C25.1788 38.9201 24.9655 39.0115 25.0671 38.9708C25.1636 38.9302 24.9503 39.0165 24.9605 39.0115C24.9147 39.0267 24.8741 39.047 24.8284 39.0622C24.6101 39.1435 24.3866 39.2197 24.1632 39.2908C23.7163 39.4279 23.2593 39.5193 22.7972 39.5954C22.7667 39.6005 22.6448 39.6158 22.7921 39.5954C22.7362 39.6005 22.6753 39.6107 22.6194 39.6158C22.5179 39.6259 22.4112 39.6361 22.3046 39.6462C22.071 39.6615 21.8425 39.6716 21.6089 39.6716C21.3905 39.6716 21.1671 39.6665 20.9487 39.6513C20.8421 39.6462 20.7405 39.6361 20.6339 39.6259C20.578 39.6208 20.5171 39.6158 20.4612 39.6056C20.4257 39.6005 20.3901 39.5954 20.3597 39.5954C20.4358 39.6056 20.446 39.6056 20.3901 39.6005C19.9382 39.5345 19.4964 39.438 19.0597 39.3111C18.8565 39.2501 18.6585 39.1841 18.4605 39.113C18.3487 39.0724 18.2421 39.0318 18.1304 38.9861C17.9933 38.9302 18.0897 38.9658 18.1151 38.981C18.039 38.9454 17.9628 38.915 17.8866 38.8794C17.0233 38.4783 16.287 37.9857 15.6624 37.4271C14.8296 36.6806 14.1999 35.8732 13.6769 34.8829C13.5651 34.6697 13.4585 34.4513 13.3671 34.2329C13.3112 34.1009 13.428 34.3954 13.3417 34.172C13.3214 34.1263 13.3062 34.0806 13.2858 34.0349C13.2351 33.9079 13.1894 33.781 13.1487 33.649C12.9964 33.1919 12.8796 32.7247 12.7933 32.2525C12.7831 32.2017 12.778 32.156 12.7679 32.1052C12.7679 32.1154 12.7323 31.8767 12.7476 31.9884C12.7628 32.1001 12.7323 31.8615 12.7323 31.8716C12.7272 31.8208 12.7222 31.7751 12.7171 31.7243C12.6917 31.4806 12.6765 31.2368 12.6714 30.9931C12.6612 30.5056 12.6866 30.013 12.7476 29.5255C12.7272 29.6677 12.773 29.3681 12.7831 29.3275C12.8034 29.2208 12.8237 29.1091 12.844 29.0025C12.8948 28.7638 12.9558 28.5201 13.0218 28.2865C13.0878 28.063 13.1589 27.8396 13.2401 27.6161C13.2808 27.5095 13.3214 27.4079 13.362 27.3064C13.3163 27.4232 13.3772 27.2759 13.3874 27.2454C13.4179 27.1794 13.4483 27.1083 13.4788 27.0423C13.687 26.5954 13.9308 26.1689 14.205 25.7626C14.2761 25.656 14.3522 25.5544 14.4233 25.4478C14.4538 25.4072 14.4843 25.3665 14.5147 25.3259C14.4487 25.4122 14.53 25.3107 14.5401 25.2954C14.7128 25.0822 14.8905 24.874 15.0784 24.6759C15.4136 24.3204 15.7741 23.9904 16.1601 23.6908C16.1347 23.7111 16.0585 23.7618 16.1804 23.6755C16.2312 23.64 16.2769 23.6044 16.3276 23.5689C16.414 23.5079 16.5054 23.4419 16.5968 23.381C16.7948 23.249 17.003 23.122 17.2112 23.0052C17.4093 22.8935 17.6073 22.7919 17.8155 22.6954C17.912 22.6497 18.0085 22.604 18.105 22.5634C17.978 22.6193 18.1202 22.5583 18.1507 22.5431C18.2269 22.5126 18.303 22.4822 18.3792 22.4517C18.7956 22.2943 19.2222 22.1673 19.6589 22.0708C19.862 22.0251 20.0702 21.9845 20.2784 21.954C20.2987 21.949 20.5272 21.9185 20.3546 21.9439C20.4003 21.9388 20.446 21.9337 20.4917 21.9286C20.6187 21.9134 20.7456 21.9033 20.8726 21.8931C21.3245 21.8626 21.7765 21.8576 22.2284 21.8931C22.3351 21.8982 22.4366 21.9083 22.5433 21.9185C22.589 21.9236 22.8835 21.9591 22.721 21.9388C22.9495 21.9693 23.1831 22.0099 23.4065 22.0607C23.8636 22.1572 24.3155 22.2892 24.7522 22.4568C24.8386 22.4872 24.93 22.5228 25.0163 22.5583C25.2296 22.6447 24.8843 22.4974 25.0925 22.5939C25.1331 22.6142 25.1788 22.6345 25.2194 22.6497C25.4378 22.7513 25.646 22.8579 25.8542 22.9697C26.0522 23.0814 26.2503 23.1982 26.4382 23.3201C26.6108 23.4318 26.88 23.6247 26.9815 23.7009C27.2761 23.9294 27.7026 24.3154 28.0175 24.6404C28.18 24.8079 28.3374 24.9857 28.4847 25.1685C28.5253 25.2193 28.5659 25.2701 28.6065 25.3208C28.698 25.4326 28.505 25.1837 28.6522 25.3818C28.7284 25.4833 28.8046 25.59 28.8757 25.6915C29.4546 26.5396 29.8151 27.2962 30.0843 28.2103C30.1503 28.4337 30.2112 28.6622 30.262 28.8908C30.2874 28.9974 30.3077 29.1091 30.328 29.2158C30.3382 29.2767 30.3483 29.3376 30.3585 29.3986C30.3636 29.429 30.3991 29.6779 30.3788 29.5255C30.4397 29.9876 30.4651 30.4548 30.4601 30.9169C30.455 31.1353 30.4448 31.3587 30.4296 31.5771C30.4194 31.699 30.4042 31.8208 30.394 31.9427C30.3737 32.0951 30.389 31.9935 30.394 31.9579C30.3839 32.0443 30.3687 32.1255 30.3534 32.2118C30.2722 32.6841 30.1554 33.1513 30.003 33.6083C29.9319 33.8216 29.8558 34.0298 29.7694 34.238C29.8151 34.1212 29.7542 34.2685 29.744 34.299C29.7187 34.3548 29.6933 34.4107 29.6679 34.4716C29.6272 34.5783 29.5714 34.69 29.5155 34.8017C29.3276 35.1673 29.419 35.6294 29.7897 35.8427C30.13 36.0408 30.6429 35.9392 30.8308 35.5685C31.8261 33.6083 32.1866 31.4197 31.8819 29.2462C31.5823 27.1236 30.5921 25.1177 29.1093 23.5689C26.2605 20.5779 21.7105 19.5267 17.8511 21.0349C15.8351 21.822 14.1136 23.1931 12.8999 24.9908C11.7167 26.7427 11.1073 28.8806 11.153 30.988C11.2038 33.2732 12.0112 35.472 13.428 37.2646C14.7483 38.9404 16.6019 40.1744 18.6483 40.7736C20.5628 41.3322 22.655 41.3271 24.5644 40.7533C26.6921 40.1134 28.5456 38.8033 29.8913 37.0411C30.2468 36.579 30.5565 36.0865 30.8257 35.5685C31.0136 35.2029 30.9222 34.7408 30.5515 34.5275C30.2163 34.3294 29.7034 34.4361 29.5155 34.8017Z" fill="black"/>
<path d="M34.2687 42.3854C32.7147 40.8315 31.1608 39.2776 29.6069 37.7237C29.3886 37.5054 29.1702 37.287 28.9519 37.0687C28.6624 36.7792 28.1647 36.7792 27.8753 37.0687C27.5858 37.3581 27.5858 37.8558 27.8753 38.1452C29.4292 39.6991 30.9831 41.253 32.537 42.8069C32.7554 43.0253 32.9737 43.2436 33.1921 43.462C33.4815 43.7515 33.9792 43.7515 34.2687 43.462C34.5581 43.1675 34.5581 42.6749 34.2687 42.3854Z" fill="black"/>
</svg>
